<?xml version="1.0" encoding="UTF-8" standalone="no"?>
<!DOCTYPE svg PUBLIC "-//W3C//DTD SVG 1.1//EN"
 "http://www.w3.org/Graphics/SVG/1.1/DTD/svg11.dtd">
<!-- Generated by graphviz version 2.43.0 (0)
 -->
<!-- Title: GAIAERD_inventario Pages: 1 -->
<svg width="599pt" height="626pt"
 viewBox="0.00 0.00 599.00 625.50" xmlns="http://www.w3.org/2000/svg" xmlns:xlink="http://www.w3.org/1999/xlink">
<g id="graph0" class="graph" transform="scale(1 1) rotate(0) translate(18 607.5)">
<title>GAIAERD_inventario</title>
<!-- storage_quota_alert -->
<g id="node1" class="node">
<title>storage_quota_alert</title>
<polygon fill="#bc6c25" stroke="transparent" points="2,-229 2,-256 208,-256 208,-229 2,-229"/>
<polygon fill="none" stroke="#ced4da" points="2,-229 2,-256 208,-256 208,-229 2,-229"/>
<text text-anchor="start" x="26" y="-239.8" font-family="DejaVu Sans" font-weight="bold" font-size="14.00" fill="#ffffff">storage_quota_alert</text>
<polygon fill="#f8f9fa" stroke="transparent" points="2,-207 2,-229 208,-229 208,-207 2,-207"/>
<polygon fill="none" stroke="#ced4da" points="2,-207 2,-229 208,-229 208,-207 2,-207"/>
<text text-anchor="start" x="8" y="-215.8" font-family="DejaVu Sans" font-size="9.00">Contiene dati relativi a storage quota alert.</text>
<polygon fill="none" stroke="#ced4da" points="2,-184 2,-207 58,-207 58,-184 2,-184"/>
<text text-anchor="start" x="8" y="-193.3" font-family="DejaVu Sans" font-size="9.00">PK</text>
<polygon fill="none" stroke="#ced4da" points="58,-184 58,-207 208,-207 208,-184 58,-184"/>
<text text-anchor="start" x="64" y="-193" font-family="DejaVu Sans" font-size="10.00">id</text>
<polygon fill="none" stroke="#ced4da" points="2,-161 2,-184 58,-184 58,-161 2,-161"/>
<text text-anchor="start" x="8" y="-170.3" font-family="DejaVu Sans" font-size="9.00"> </text>
<polygon fill="none" stroke="#ced4da" points="58,-161 58,-184 208,-184 208,-161 58,-161"/>
<text text-anchor="start" x="64" y="-170" font-family="DejaVu Sans" font-size="10.00">alert_level</text>
<polygon fill="none" stroke="#ced4da" points="2,-138 2,-161 58,-161 58,-138 2,-138"/>
<text text-anchor="start" x="8" y="-147.3" font-family="DejaVu Sans" font-size="9.00"> </text>
<polygon fill="none" stroke="#ced4da" points="58,-138 58,-161 208,-161 208,-138 58,-138"/>
<text text-anchor="start" x="64" y="-147" font-family="DejaVu Sans" font-size="10.00">threshold_percentage</text>
<polygon fill="none" stroke="#ced4da" points="2,-115 2,-138 58,-138 58,-115 2,-115"/>
<text text-anchor="start" x="8" y="-124.3" font-family="DejaVu Sans" font-size="9.00"> </text>
<polygon fill="none" stroke="#ced4da" points="58,-115 58,-138 208,-138 208,-115 58,-115"/>
<text text-anchor="start" x="64" y="-124" font-family="DejaVu Sans" font-size="10.00">triggered_at</text>
<polygon fill="none" stroke="#ced4da" points="2,-92 2,-115 58,-115 58,-92 2,-92"/>
<text text-anchor="start" x="8" y="-101.3" font-family="DejaVu Sans" font-size="9.00"> </text>
<polygon fill="none" stroke="#ced4da" points="58,-92 58,-115 208,-115 208,-92 58,-92"/>
<text text-anchor="start" x="64" y="-101" font-family="DejaVu Sans" font-size="10.00">resolved_at</text>
<polygon fill="none" stroke="#ced4da" points="2,-69 2,-92 58,-92 58,-69 2,-69"/>
<text text-anchor="start" x="8" y="-78.3" font-family="DejaVu Sans" font-size="9.00">FK</text>
<polygon fill="none" stroke="#ced4da" points="58,-69 58,-92 208,-92 208,-69 58,-69"/>
<text text-anchor="start" x="64" y="-78" font-family="DejaVu Sans" font-size="10.00">metric_id</text>
<polygon fill="none" stroke="#ced4da" points="2,-46 2,-69 58,-69 58,-46 2,-46"/>
<text text-anchor="start" x="8" y="-55.3" font-family="DejaVu Sans" font-size="9.00"> </text>
<polygon fill="none" stroke="#ced4da" points="58,-46 58,-69 208,-69 208,-46 58,-46"/>
<text text-anchor="start" x="64" y="-55" font-family="DejaVu Sans" font-size="10.00">note</text>
<polygon fill="none" stroke="#ced4da" points="2,-23 2,-46 58,-46 58,-23 2,-23"/>
<text text-anchor="start" x="8" y="-32.3" font-family="DejaVu Sans" font-size="9.00"> </text>
<polygon fill="none" stroke="#ced4da" points="58,-23 58,-46 208,-46 208,-23 58,-23"/>
<text text-anchor="start" x="64" y="-32" font-family="DejaVu Sans" font-size="10.00">created_at</text>
<polygon fill="none" stroke="#ced4da" points="2,0 2,-23 58,-23 58,0 2,0"/>
<text text-anchor="start" x="8" y="-9.3" font-family="DejaVu Sans" font-size="9.00"> </text>
<polygon fill="none" stroke="#ced4da" points="58,0 58,-23 208,-23 208,0 58,0"/>
<text text-anchor="start" x="64" y="-9" font-family="DejaVu Sans" font-size="10.00">updated_at</text>
</g>
<!-- storage_quota_metric -->
<g id="node2" class="node">
<title>storage_quota_metric</title>
<polygon fill="#bc6c25" stroke="transparent" points="346.5,-206 346.5,-233 563.5,-233 563.5,-206 346.5,-206"/>
<polygon fill="none" stroke="#ced4da" points="346.5,-206 346.5,-233 563.5,-233 563.5,-206 346.5,-206"/>
<text text-anchor="start" x="369.5" y="-216.8" font-family="DejaVu Sans" font-weight="bold" font-size="14.00" fill="#ffffff">storage_quota_metric</text>
<polygon fill="#f8f9fa" stroke="transparent" points="346.5,-184 346.5,-206 563.5,-206 563.5,-184 346.5,-184"/>
<polygon fill="none" stroke="#ced4da" points="346.5,-184 346.5,-206 563.5,-206 563.5,-184 346.5,-184"/>
<text text-anchor="start" x="352.5" y="-192.8" font-family="DejaVu Sans" font-size="9.00">Registra dati relativi a storage quota metrica.</text>
<polygon fill="none" stroke="#ced4da" points="346.5,-161 346.5,-184 418.5,-184 418.5,-161 346.5,-161"/>
<text text-anchor="start" x="352.5" y="-170.3" font-family="DejaVu Sans" font-size="9.00">PK</text>
<polygon fill="none" stroke="#ced4da" points="418.5,-161 418.5,-184 563.5,-184 563.5,-161 418.5,-161"/>
<text text-anchor="start" x="424.5" y="-170" font-family="DejaVu Sans" font-size="10.00">id</text>
<polygon fill="none" stroke="#ced4da" points="346.5,-138 346.5,-161 418.5,-161 418.5,-138 346.5,-138"/>
<text text-anchor="start" x="352.5" y="-147.3" font-family="DejaVu Sans" font-size="9.00"> </text>
<polygon fill="none" stroke="#ced4da" points="418.5,-138 418.5,-161 563.5,-161 563.5,-138 418.5,-138"/>
<text text-anchor="start" x="424.5" y="-147" font-family="DejaVu Sans" font-size="10.00">measured_at</text>
<polygon fill="none" stroke="#ced4da" points="346.5,-115 346.5,-138 418.5,-138 418.5,-115 346.5,-115"/>
<text text-anchor="start" x="352.5" y="-124.3" font-family="DejaVu Sans" font-size="9.00"> </text>
<polygon fill="none" stroke="#ced4da" points="418.5,-115 418.5,-138 563.5,-138 563.5,-115 418.5,-115"/>
<text text-anchor="start" x="424.5" y="-124" font-family="DejaVu Sans" font-size="10.00">total_bytes_used</text>
<polygon fill="none" stroke="#ced4da" points="346.5,-92 346.5,-115 418.5,-115 418.5,-92 346.5,-92"/>
<text text-anchor="start" x="352.5" y="-101.3" font-family="DejaVu Sans" font-size="9.00"> </text>
<polygon fill="none" stroke="#ced4da" points="418.5,-92 418.5,-115 563.5,-115 563.5,-92 418.5,-92"/>
<text text-anchor="start" x="424.5" y="-101" font-family="DejaVu Sans" font-size="10.00">quota_bytes</text>
<polygon fill="none" stroke="#ced4da" points="346.5,-69 346.5,-92 418.5,-92 418.5,-69 346.5,-69"/>
<text text-anchor="start" x="352.5" y="-78.3" font-family="DejaVu Sans" font-size="9.00"> </text>
<polygon fill="none" stroke="#ced4da" points="418.5,-69 418.5,-92 563.5,-92 563.5,-69 418.5,-69"/>
<text text-anchor="start" x="424.5" y="-78" font-family="DejaVu Sans" font-size="10.00">percentage_used</text>
<polygon fill="none" stroke="#ced4da" points="346.5,-46 346.5,-69 418.5,-69 418.5,-46 346.5,-46"/>
<text text-anchor="start" x="352.5" y="-55.3" font-family="DejaVu Sans" font-size="9.00"> </text>
<polygon fill="none" stroke="#ced4da" points="418.5,-46 418.5,-69 563.5,-69 563.5,-46 418.5,-46"/>
<text text-anchor="start" x="424.5" y="-55" font-family="DejaVu Sans" font-size="10.00">created_at</text>
<polygon fill="none" stroke="#ced4da" points="346.5,-23 346.5,-46 418.5,-46 418.5,-23 346.5,-23"/>
<text text-anchor="start" x="352.5" y="-32.3" font-family="DejaVu Sans" font-size="9.00"> </text>
<polygon fill="none" stroke="#ced4da" points="418.5,-23 418.5,-46 563.5,-46 563.5,-23 418.5,-23"/>
<text text-anchor="start" x="424.5" y="-32" font-family="DejaVu Sans" font-size="10.00">updated_at</text>
</g>
<!-- storage_quota_alert&#45;&gt;storage_quota_metric -->
<g id="edge1" class="edge">
<title>storage_quota_alert&#45;&gt;storage_quota_metric</title>
<path fill="none" stroke="#495057" d="M208.38,-128C249.6,-128 297.3,-128 339.61,-128"/>
<polygon fill="#495057" stroke="#495057" points="339.81,-130.1 345.81,-128 339.81,-125.9 339.81,-130.1"/>
<text text-anchor="middle" x="278" y="-131" font-family="DejaVu Sans" font-size="10.00">metric_id</text>
</g>
<!-- warehouse_request -->
<g id="node3" class="node">
<title>warehouse_request</title>
<polygon fill="#bc6c25" stroke="transparent" points="0,-562 0,-589 210,-589 210,-562 0,-562"/>
<polygon fill="none" stroke="#ced4da" points="0,-562 0,-589 210,-589 210,-562 0,-562"/>
<text text-anchor="start" x="28" y="-572.8" font-family="DejaVu Sans" font-weight="bold" font-size="14.00" fill="#ffffff">warehouse_request</text>
<polygon fill="#f8f9fa" stroke="transparent" points="0,-540 0,-562 210,-562 210,-540 0,-540"/>
<polygon fill="none" stroke="#ced4da" points="0,-540 0,-562 210,-562 210,-540 0,-540"/>
<text text-anchor="start" x="6" y="-548.8" font-family="DejaVu Sans" font-size="9.00">Contiene dati relativi a warehouse richiesta.</text>
<polygon fill="none" stroke="#ced4da" points="0,-517 0,-540 76,-540 76,-517 0,-517"/>
<text text-anchor="start" x="6" y="-526.3" font-family="DejaVu Sans" font-size="9.00">PK</text>
<polygon fill="none" stroke="#ced4da" points="76,-517 76,-540 210,-540 210,-517 76,-517"/>
<text text-anchor="start" x="82" y="-526" font-family="DejaVu Sans" font-size="10.00">id</text>
<polygon fill="none" stroke="#ced4da" points="0,-494 0,-517 76,-517 76,-494 0,-494"/>
<text text-anchor="start" x="6" y="-503.3" font-family="DejaVu Sans" font-size="9.00"> </text>
<polygon fill="none" stroke="#ced4da" points="76,-494 76,-517 210,-517 210,-494 76,-494"/>
<text text-anchor="start" x="82" y="-503" font-family="DejaVu Sans" font-size="10.00">wc_id</text>
<polygon fill="none" stroke="#ced4da" points="0,-471 0,-494 76,-494 76,-471 0,-471"/>
<text text-anchor="start" x="6" y="-480.3" font-family="DejaVu Sans" font-size="9.00"> </text>
<polygon fill="none" stroke="#ced4da" points="76,-471 76,-494 210,-494 210,-471 76,-471"/>
<text text-anchor="start" x="82" y="-480" font-family="DejaVu Sans" font-size="10.00">wc_report_id</text>
<polygon fill="none" stroke="#ced4da" points="0,-448 0,-471 76,-471 76,-448 0,-448"/>
<text text-anchor="start" x="6" y="-457.3" font-family="DejaVu Sans" font-size="9.00">FK</text>
<polygon fill="none" stroke="#ced4da" points="76,-448 76,-471 210,-471 210,-448 76,-448"/>
<text text-anchor="start" x="82" y="-457" font-family="DejaVu Sans" font-size="10.00">field_report_id</text>
<polygon fill="none" stroke="#ced4da" points="0,-425 0,-448 76,-448 76,-425 0,-425"/>
<text text-anchor="start" x="6" y="-434.3" font-family="DejaVu Sans" font-size="9.00"> </text>
<polygon fill="none" stroke="#ced4da" points="76,-425 76,-448 210,-448 210,-425 76,-425"/>
<text text-anchor="start" x="82" y="-434" font-family="DejaVu Sans" font-size="10.00">report_type</text>
<polygon fill="none" stroke="#ced4da" points="0,-402 0,-425 76,-425 76,-402 0,-402"/>
<text text-anchor="start" x="6" y="-411.3" font-family="DejaVu Sans" font-size="9.00"> </text>
<polygon fill="none" stroke="#ced4da" points="76,-402 76,-425 210,-425 210,-402 76,-402"/>
<text text-anchor="start" x="82" y="-411" font-family="DejaVu Sans" font-size="10.00">reported_by</text>
<polygon fill="none" stroke="#ced4da" points="0,-379 0,-402 76,-402 76,-379 0,-379"/>
<text text-anchor="start" x="6" y="-388.3" font-family="DejaVu Sans" font-size="9.00"> </text>
<polygon fill="none" stroke="#ced4da" points="76,-379 76,-402 210,-402 210,-379 76,-379"/>
<text text-anchor="start" x="82" y="-388" font-family="DejaVu Sans" font-size="10.00">requested_by</text>
<polygon fill="none" stroke="#ced4da" points="0,-356 0,-379 76,-379 76,-356 0,-356"/>
<text text-anchor="start" x="6" y="-365.3" font-family="DejaVu Sans" font-size="9.00"> </text>
<polygon fill="none" stroke="#ced4da" points="76,-356 76,-379 210,-379 210,-356 76,-356"/>
<text text-anchor="start" x="82" y="-365" font-family="DejaVu Sans" font-size="10.00">report_date</text>
<polygon fill="none" stroke="#ced4da" points="0,-333 0,-356 76,-356 76,-333 0,-333"/>
<text text-anchor="start" x="6" y="-342.3" font-family="DejaVu Sans" font-size="9.00"> </text>
<polygon fill="none" stroke="#ced4da" points="76,-333 76,-356 210,-356 210,-333 76,-333"/>
<text text-anchor="start" x="82" y="-342" font-family="DejaVu Sans" font-size="10.00">request_date</text>
<polygon fill="none" stroke="#ced4da" points="0,-310 0,-333 76,-333 76,-310 0,-310"/>
<text text-anchor="start" x="6" y="-319.3" font-family="DejaVu Sans" font-size="9.00"> </text>
<polygon fill="none" stroke="#ced4da" points="76,-310 76,-333 210,-333 210,-310 76,-310"/>
<text text-anchor="start" x="82" y="-319" font-family="DejaVu Sans" font-size="10.00">archived</text>
<polygon fill="none" stroke="#ced4da" points="0,-288 0,-310 76,-310 76,-288 0,-288"/>
<polygon fill="none" stroke="#ced4da" points="76,-288 76,-310 210,-310 210,-288 76,-288"/>
<text text-anchor="start" x="82" y="-296.8" font-family="DejaVu Sans" font-size="9.00">+ 4 colonne</text>
</g>
<!-- field_report -->
<g id="node4" class="node">
<title>field_report</title>
<polygon fill="#e9ecef" stroke="transparent" points="352.5,-562 352.5,-589 556.5,-589 556.5,-562 352.5,-562"/>
<polygon fill="none" stroke="#ced4da" points="352.5,-562 352.5,-589 556.5,-589 556.5,-562 352.5,-562"/>
<text text-anchor="start" x="409" y="-572.8" font-family="DejaVu Sans" font-weight="bold" font-size="14.00" fill="#343a40">field_report</text>
<polygon fill="#f8f9fa" stroke="transparent" points="352.5,-540 352.5,-562 556.5,-562 556.5,-540 352.5,-540"/>
<polygon fill="none" stroke="#ced4da" points="352.5,-540 352.5,-562 556.5,-562 556.5,-540 352.5,-540"/>
<text text-anchor="start" x="358.5" y="-548.8" font-family="DejaVu Sans" font-size="9.00">Riferimento esterno: Operazioni sul campo</text>
<polygon fill="none" stroke="#ced4da" points="352.5,-517 352.5,-540 411.5,-540 411.5,-517 352.5,-517"/>
<text text-anchor="start" x="358.5" y="-526.3" font-family="DejaVu Sans" font-size="9.00">PK</text>
<polygon fill="none" stroke="#ced4da" points="411.5,-517 411.5,-540 556.5,-540 556.5,-517 411.5,-517"/>
<text text-anchor="start" x="417.5" y="-526" font-family="DejaVu Sans" font-size="10.00">id</text>
<polygon fill="none" stroke="#ced4da" points="352.5,-494 352.5,-517 411.5,-517 411.5,-494 352.5,-494"/>
<text text-anchor="start" x="358.5" y="-503.3" font-family="DejaVu Sans" font-size="9.00"> </text>
<polygon fill="none" stroke="#ced4da" points="411.5,-494 411.5,-517 556.5,-517 556.5,-494 411.5,-494"/>
<text text-anchor="start" x="417.5" y="-503" font-family="DejaVu Sans" font-size="10.00">report_number</text>
<polygon fill="none" stroke="#ced4da" points="352.5,-471 352.5,-494 411.5,-494 411.5,-471 352.5,-471"/>
<text text-anchor="start" x="358.5" y="-480.3" font-family="DejaVu Sans" font-size="9.00"> </text>
<polygon fill="none" stroke="#ced4da" points="411.5,-471 411.5,-494 556.5,-494 556.5,-471 411.5,-471"/>
<text text-anchor="start" x="417.5" y="-480" font-family="DejaVu Sans" font-size="10.00">external_code</text>
<polygon fill="none" stroke="#ced4da" points="352.5,-448 352.5,-471 411.5,-471 411.5,-448 352.5,-448"/>
<text text-anchor="start" x="358.5" y="-457.3" font-family="DejaVu Sans" font-size="9.00">FK</text>
<polygon fill="none" stroke="#ced4da" points="411.5,-448 411.5,-471 556.5,-471 556.5,-448 411.5,-448"/>
<text text-anchor="start" x="417.5" y="-457" font-family="DejaVu Sans" font-size="10.00">reporter_user_id</text>
<polygon fill="none" stroke="#ced4da" points="352.5,-425 352.5,-448 411.5,-448 411.5,-425 352.5,-425"/>
<text text-anchor="start" x="358.5" y="-434.3" font-family="DejaVu Sans" font-size="9.00">FK</text>
<polygon fill="none" stroke="#ced4da" points="411.5,-425 411.5,-448 556.5,-448 556.5,-425 411.5,-425"/>
<text text-anchor="start" x="417.5" y="-434" font-family="DejaVu Sans" font-size="10.00">team_id</text>
<polygon fill="none" stroke="#ced4da" points="352.5,-402 352.5,-425 411.5,-425 411.5,-402 352.5,-402"/>
<text text-anchor="start" x="358.5" y="-411.3" font-family="DejaVu Sans" font-size="9.00">FK</text>
<polygon fill="none" stroke="#ced4da" points="411.5,-402 411.5,-425 556.5,-425 556.5,-402 411.5,-402"/>
<text text-anchor="start" x="417.5" y="-411" font-family="DejaVu Sans" font-size="10.00">vehicle_id</text>
<polygon fill="none" stroke="#ced4da" points="352.5,-379 352.5,-402 411.5,-402 411.5,-379 352.5,-379"/>
<text text-anchor="start" x="358.5" y="-388.3" font-family="DejaVu Sans" font-size="9.00">FK</text>
<polygon fill="none" stroke="#ced4da" points="411.5,-379 411.5,-402 556.5,-402 556.5,-379 411.5,-379"/>
<text text-anchor="start" x="417.5" y="-388" font-family="DejaVu Sans" font-size="10.00">operator_activity_id</text>
<polygon fill="none" stroke="#ced4da" points="352.5,-356 352.5,-379 411.5,-379 411.5,-356 352.5,-356"/>
<text text-anchor="start" x="358.5" y="-365.3" font-family="DejaVu Sans" font-size="9.00">FK</text>
<polygon fill="none" stroke="#ced4da" points="411.5,-356 411.5,-379 556.5,-379 556.5,-356 411.5,-356"/>
<text text-anchor="start" x="417.5" y="-365" font-family="DejaVu Sans" font-size="10.00">category_id</text>
<polygon fill="none" stroke="#ced4da" points="352.5,-333 352.5,-356 411.5,-356 411.5,-333 352.5,-333"/>
<text text-anchor="start" x="358.5" y="-342.3" font-family="DejaVu Sans" font-size="9.00">FK</text>
<polygon fill="none" stroke="#ced4da" points="411.5,-333 411.5,-356 556.5,-356 556.5,-333 411.5,-333"/>
<text text-anchor="start" x="417.5" y="-342" font-family="DejaVu Sans" font-size="10.00">severity_id</text>
<polygon fill="none" stroke="#ced4da" points="352.5,-310 352.5,-333 411.5,-333 411.5,-310 352.5,-310"/>
<text text-anchor="start" x="358.5" y="-319.3" font-family="DejaVu Sans" font-size="9.00"> </text>
<polygon fill="none" stroke="#ced4da" points="411.5,-310 411.5,-333 556.5,-333 556.5,-310 411.5,-310"/>
<text text-anchor="start" x="417.5" y="-319" font-family="DejaVu Sans" font-size="10.00">title</text>
<polygon fill="none" stroke="#ced4da" points="352.5,-288 352.5,-310 411.5,-310 411.5,-288 352.5,-288"/>
<polygon fill="none" stroke="#ced4da" points="411.5,-288 411.5,-310 556.5,-310 556.5,-288 411.5,-288"/>
<text text-anchor="start" x="417.5" y="-296.8" font-family="DejaVu Sans" font-size="9.00">+ 20 colonne</text>
</g>
<!-- warehouse_request&#45;&gt;field_report -->
<g id="edge2" class="edge">
<title>warehouse_request&#45;&gt;field_report</title>
<path fill="none" stroke="#495057" d="M210.26,-439C253.22,-439 302.97,-439 346.24,-439"/>
<polygon fill="#495057" stroke="#495057" points="346.3,-441.1 352.3,-439 346.3,-436.9 346.3,-441.1"/>
<text text-anchor="middle" x="278" y="-442" font-family="DejaVu Sans" font-size="10.00">field_report_id</text>
</g>
</g>
</svg>
