<?xml version="1.0" encoding="UTF-8" standalone="no"?>
<!DOCTYPE svg PUBLIC "-//W3C//DTD SVG 1.1//EN"
 "http://www.w3.org/Graphics/SVG/1.1/DTD/svg11.dtd">
<!-- Generated by graphviz version 2.43.0 (0)
 -->
<!-- Title: GAIADataModelA0 Pages: 1 -->
<svg width="3078pt" height="1113pt"
 viewBox="0.00 0.00 3078.40 1112.90" xmlns="http://www.w3.org/2000/svg" xmlns:xlink="http://www.w3.org/1999/xlink">
<g id="graph0" class="graph" transform="scale(1 1) rotate(0) translate(25.2 1087.7)">
<title>GAIADataModelA0</title>
<!-- accessi -->
<g id="node1" class="node">
<title>accessi</title>
<polygon fill="#29524a" stroke="transparent" points="1969.5,-604.5 1969.5,-647.5 2424.5,-647.5 2424.5,-604.5 1969.5,-604.5"/>
<text text-anchor="start" x="2073.5" y="-621.1" font-family="DejaVu Sans" font-weight="bold" font-size="23.00" fill="#ffffff">Accessi e permessi</text>
<polygon fill="#ffffff" stroke="transparent" points="1969.5,-568.5 1969.5,-604.5 2424.5,-604.5 2424.5,-568.5 1969.5,-568.5"/>
<text text-anchor="start" x="2152.5" y="-583.7" font-family="DejaVu Sans" font-weight="bold" font-size="16.00">10 tabelle</text>
<polygon fill="#ffffff" stroke="transparent" points="1969.5,-536.5 1969.5,-568.5 2424.5,-568.5 2424.5,-536.5 1969.5,-536.5"/>
<text text-anchor="start" x="1978.5" y="-549.1" font-family="DejaVu Sans" font-size="13.00">Gestisce utenti, ruoli, sezioni abilitate, inviti e accessi applicativi.</text>
</g>
<!-- sync -->
<g id="node13" class="node">
<title>sync</title>
<polygon fill="#495057" stroke="transparent" points="2610,-604.5 2610,-647.5 3028,-647.5 3028,-604.5 2610,-604.5"/>
<text text-anchor="start" x="2662.5" y="-621.1" font-family="DejaVu Sans" font-weight="bold" font-size="23.00" fill="#ffffff">Sincronizzazioni e audit</text>
<polygon fill="#ffffff" stroke="transparent" points="2610,-568.5 2610,-604.5 3028,-604.5 3028,-568.5 2610,-568.5"/>
<text text-anchor="start" x="2780" y="-583.7" font-family="DejaVu Sans" font-weight="bold" font-size="16.00">6 tabelle</text>
<polygon fill="#ffffff" stroke="transparent" points="2610,-536.5 2610,-568.5 3028,-568.5 3028,-536.5 2610,-536.5"/>
<text text-anchor="start" x="2619" y="-549.1" font-family="DejaVu Sans" font-size="13.00">Registra job, esecuzioni, snapshot, revisioni e condivisioni...</text>
</g>
<!-- accessi&#45;&gt;sync -->
<g id="edge9" class="edge">
<title>accessi&#45;&gt;sync</title>
<path fill="none" stroke="#495057" stroke-width="1.8" d="M2424.15,-592.5C2482.53,-592.5 2545.19,-592.5 2602.96,-592.5"/>
<polygon fill="#495057" stroke="#495057" stroke-width="1.8" points="2602.98,-594.95 2609.98,-592.5 2602.98,-590.05 2602.98,-594.95"/>
<text text-anchor="middle" x="2517" y="-596.1" font-family="DejaVu Sans" font-size="13.00">4 collegamenti</text>
</g>
<!-- organigramma -->
<g id="node2" class="node">
<title>organigramma</title>
<polygon fill="#52796f" stroke="transparent" points="665,-992.5 665,-1035.5 1083,-1035.5 1083,-992.5 665,-992.5"/>
<text text-anchor="start" x="776" y="-1009.1" font-family="DejaVu Sans" font-weight="bold" font-size="23.00" fill="#ffffff">Organigramma</text>
<polygon fill="#ffffff" stroke="transparent" points="665,-956.5 665,-992.5 1083,-992.5 1083,-956.5 665,-956.5"/>
<text text-anchor="start" x="829.5" y="-971.7" font-family="DejaVu Sans" font-weight="bold" font-size="16.00">10 tabelle</text>
<polygon fill="#ffffff" stroke="transparent" points="665,-924.5 665,-956.5 1083,-956.5 1083,-924.5 665,-924.5"/>
<text text-anchor="start" x="674" y="-937.1" font-family="DejaVu Sans" font-size="13.00">Rappresenta uffici, revisioni organizzative, assegnazioni e...</text>
</g>
<!-- organigramma&#45;&gt;accessi -->
<g id="edge4" class="edge">
<title>organigramma&#45;&gt;accessi</title>
<path fill="none" stroke="#495057" stroke-width="5" d="M1083.15,-1023.89C1270.9,-1053.32 1551.11,-1072.67 1775,-984.5 1944.87,-917.6 2086.67,-746.17 2153.79,-653.74"/>
<polygon fill="#495057" stroke="#495057" stroke-width="5" points="2156.29,-655.51 2157.91,-648.04 2151.33,-651.92 2156.29,-655.51"/>
<text text-anchor="middle" x="1531" y="-1052.1" font-family="DejaVu Sans" font-size="13.00">22 collegamenti</text>
</g>
<!-- operazioni -->
<g id="node7" class="node">
<title>operazioni</title>
<polygon fill="#d00000" stroke="transparent" points="1290,-917.5 1290,-960.5 1772,-960.5 1772,-917.5 1290,-917.5"/>
<text text-anchor="start" x="1390" y="-934.1" font-family="DejaVu Sans" font-weight="bold" font-size="23.00" fill="#ffffff">Operazioni sul campo</text>
<polygon fill="#ffffff" stroke="transparent" points="1290,-881.5 1290,-917.5 1772,-917.5 1772,-881.5 1290,-881.5"/>
<text text-anchor="start" x="1486.5" y="-896.7" font-family="DejaVu Sans" font-weight="bold" font-size="16.00">37 tabelle</text>
<polygon fill="#ffffff" stroke="transparent" points="1290,-849.5 1290,-881.5 1772,-881.5 1772,-849.5 1290,-849.5"/>
<text text-anchor="start" x="1299" y="-862.1" font-family="DejaVu Sans" font-size="13.00">Descrive attivita, squadre, mezzi, segnalazioni, allegati, carburante...</text>
</g>
<!-- organigramma&#45;&gt;operazioni -->
<g id="edge7" class="edge">
<title>organigramma&#45;&gt;operazioni</title>
<path fill="none" stroke="#495057" stroke-width="2.4" d="M1083.15,-956.67C1146.58,-949.4 1216.93,-941.35 1282.68,-933.82"/>
<polygon fill="#495057" stroke="#495057" stroke-width="2.4" points="1283.18,-936.23 1289.85,-933 1282.62,-931.36 1283.18,-936.23"/>
<text text-anchor="middle" x="1194" y="-950.1" font-family="DejaVu Sans" font-size="13.00">7 collegamenti</text>
</g>
<!-- presenze -->
<g id="node3" class="node">
<title>presenze</title>
<polygon fill="#0077b6" stroke="transparent" points="1301,-759.5 1301,-802.5 1761,-802.5 1761,-759.5 1301,-759.5"/>
<text text-anchor="start" x="1471.5" y="-776.1" font-family="DejaVu Sans" font-weight="bold" font-size="23.00" fill="#ffffff">Presenze</text>
<polygon fill="#ffffff" stroke="transparent" points="1301,-723.5 1301,-759.5 1761,-759.5 1761,-723.5 1301,-723.5"/>
<text text-anchor="start" x="1486.5" y="-738.7" font-family="DejaVu Sans" font-weight="bold" font-size="16.00">21 tabelle</text>
<polygon fill="#ffffff" stroke="transparent" points="1301,-691.5 1301,-723.5 1761,-723.5 1761,-691.5 1301,-691.5"/>
<text text-anchor="start" x="1310" y="-704.1" font-family="DejaVu Sans" font-size="13.00">Raccoglie collaboratori, timbrature, giornaliere, squadre, turni e...</text>
</g>
<!-- presenze&#45;&gt;accessi -->
<g id="edge2" class="edge">
<title>presenze&#45;&gt;accessi</title>
<path fill="none" stroke="#495057" stroke-width="5" d="M1761.17,-702.2C1815.35,-690.83 1872.83,-678.22 1926,-665.5 1946.42,-660.61 1967.64,-655.29 1988.82,-649.82"/>
<polygon fill="#495057" stroke="#495057" stroke-width="5" points="1989.68,-652.76 1995.69,-648.04 1988.14,-646.83 1989.68,-652.76"/>
<text text-anchor="middle" x="1872" y="-693.1" font-family="DejaVu Sans" font-size="13.00">26 collegamenti</text>
</g>
<!-- catasto -->
<g id="node4" class="node">
<title>catasto</title>
<polygon fill="#8f5e15" stroke="transparent" points="647,-414.5 647,-457.5 1101,-457.5 1101,-414.5 647,-414.5"/>
<text text-anchor="start" x="721" y="-431.1" font-family="DejaVu Sans" font-weight="bold" font-size="23.00" fill="#ffffff">Catasto e GIS catastale</text>
<polygon fill="#ffffff" stroke="transparent" points="647,-378.5 647,-414.5 1101,-414.5 1101,-378.5 647,-378.5"/>
<text text-anchor="start" x="829.5" y="-393.7" font-family="DejaVu Sans" font-weight="bold" font-size="16.00">55 tabelle</text>
<polygon fill="#ffffff" stroke="transparent" points="647,-346.5 647,-378.5 1101,-378.5 1101,-346.5 647,-346.5"/>
<text text-anchor="start" x="656" y="-359.1" font-family="DejaVu Sans" font-size="13.00">Collega particelle, utenze irrigue, distretti, intestatari, letture e...</text>
</g>
<!-- catasto&#45;&gt;accessi -->
<g id="edge3" class="edge">
<title>catasto&#45;&gt;accessi</title>
<path fill="none" stroke="#495057" stroke-width="5" d="M1101.46,-368.82C1285.39,-348.57 1550.21,-335.62 1775,-387.5 1895.9,-415.4 2022.25,-483.01 2104.49,-532.99"/>
<polygon fill="#495057" stroke="#495057" stroke-width="5" points="2103.26,-535.83 2110.83,-536.86 2106.45,-530.6 2103.26,-535.83"/>
<text text-anchor="middle" x="1531" y="-391.1" font-family="DejaVu Sans" font-size="13.00">23 collegamenti</text>
</g>
<!-- utenze -->
<g id="node5" class="node">
<title>utenze</title>
<polygon fill="#7b2cbf" stroke="transparent" points="1289,-492.5 1289,-535.5 1773,-535.5 1773,-492.5 1289,-492.5"/>
<text text-anchor="start" x="1391.5" y="-509.1" font-family="DejaVu Sans" font-weight="bold" font-size="23.00" fill="#ffffff">Utenze e anagrafiche</text>
<polygon fill="#ffffff" stroke="transparent" points="1289,-456.5 1289,-492.5 1773,-492.5 1773,-456.5 1289,-456.5"/>
<text text-anchor="start" x="1486.5" y="-471.7" font-family="DejaVu Sans" font-weight="bold" font-size="16.00">15 tabelle</text>
<polygon fill="#ffffff" stroke="transparent" points="1289,-424.5 1289,-456.5 1773,-456.5 1773,-424.5 1289,-424.5"/>
<text text-anchor="start" x="1298" y="-437.1" font-family="DejaVu Sans" font-size="13.00">Normalizza persone, aziende, documenti, import anagrafici, ANPR e...</text>
</g>
<!-- catasto&#45;&gt;utenze -->
<g id="edge10" class="edge">
<title>catasto&#45;&gt;utenze</title>
<path fill="none" stroke="#495057" stroke-width="1.8" d="M1101.33,-429.45C1159.52,-436.38 1222.43,-443.87 1281.66,-450.93"/>
<polygon fill="#495057" stroke="#495057" stroke-width="1.8" points="1281.63,-453.39 1288.87,-451.78 1282.2,-448.52 1281.63,-453.39"/>
<text text-anchor="middle" x="1194" y="-449.1" font-family="DejaVu Sans" font-size="13.00">4 collegamenti</text>
</g>
<!-- utenze&#45;&gt;accessi -->
<g id="edge8" class="edge">
<title>utenze&#45;&gt;accessi</title>
<path fill="none" stroke="#495057" stroke-width="2" d="M1773.42,-521.25C1834.87,-531.63 1900.8,-542.75 1961.86,-553.06"/>
<polygon fill="#495057" stroke="#495057" stroke-width="2" points="1961.59,-555.5 1968.9,-554.25 1962.41,-550.67 1961.59,-555.5"/>
<text text-anchor="middle" x="1872" y="-550.1" font-family="DejaVu Sans" font-size="13.00">5 collegamenti</text>
</g>
<!-- ruolo -->
<g id="node6" class="node">
<title>ruolo</title>
<polygon fill="#b08968" stroke="transparent" points="4.5,-414.5 4.5,-457.5 457.5,-457.5 457.5,-414.5 4.5,-414.5"/>
<text text-anchor="start" x="133" y="-431.1" font-family="DejaVu Sans" font-weight="bold" font-size="23.00" fill="#ffffff">Ruolo e incassi</text>
<polygon fill="#ffffff" stroke="transparent" points="4.5,-378.5 4.5,-414.5 457.5,-414.5 457.5,-378.5 4.5,-378.5"/>
<text text-anchor="start" x="192" y="-393.7" font-family="DejaVu Sans" font-weight="bold" font-size="16.00">4 tabelle</text>
<polygon fill="#ffffff" stroke="transparent" points="4.5,-346.5 4.5,-378.5 457.5,-378.5 457.5,-346.5 4.5,-346.5"/>
<text text-anchor="start" x="13.5" y="-359.1" font-family="DejaVu Sans" font-size="13.00">Tiene traccia di partite, avvisi, particelle collegate e import del...</text>
</g>
<!-- ruolo&#45;&gt;catasto -->
<g id="edge12" class="edge">
<title>ruolo&#45;&gt;catasto</title>
<path fill="none" stroke="#495057" stroke-width="1.8" d="M457.22,-402.5C516.34,-402.5 580.2,-402.5 639.72,-402.5"/>
<polygon fill="#495057" stroke="#495057" stroke-width="1.8" points="639.95,-404.95 646.95,-402.5 639.95,-400.05 639.95,-404.95"/>
<text text-anchor="middle" x="554" y="-406.1" font-family="DejaVu Sans" font-size="13.00">4 collegamenti</text>
</g>
<!-- operazioni&#45;&gt;accessi -->
<g id="edge1" class="edge">
<title>operazioni&#45;&gt;accessi</title>
<path fill="none" stroke="#495057" stroke-width="5" d="M1715.87,-849.93C1736.03,-842.6 1756.09,-834.74 1775,-826.5 1891.37,-775.77 2017.74,-702.83 2101.24,-651.91"/>
<polygon fill="#495057" stroke="#495057" stroke-width="5" points="2103.05,-654.39 2107.43,-648.13 2099.86,-649.16 2103.05,-654.39"/>
<text text-anchor="middle" x="1872" y="-808.1" font-family="DejaVu Sans" font-size="13.00">40 collegamenti</text>
</g>
<!-- riordino -->
<g id="node8" class="node">
<title>riordino</title>
<polygon fill="#386641" stroke="transparent" points="657,-610.5 657,-653.5 1092,-653.5 1092,-610.5 657,-610.5"/>
<text text-anchor="start" x="756" y="-627.1" font-family="DejaVu Sans" font-weight="bold" font-size="23.00" fill="#ffffff">Riordino fondiario</text>
<polygon fill="#ffffff" stroke="transparent" points="657,-574.5 657,-610.5 1092,-610.5 1092,-574.5 657,-574.5"/>
<text text-anchor="start" x="830" y="-589.7" font-family="DejaVu Sans" font-weight="bold" font-size="16.00">16 tabelle</text>
<polygon fill="#ffffff" stroke="transparent" points="657,-542.5 657,-574.5 1092,-574.5 1092,-542.5 657,-542.5"/>
<text text-anchor="start" x="666" y="-555.1" font-family="DejaVu Sans" font-size="13.00">Gestisce pratiche, fasi, documenti, problemi, task, notifiche,...</text>
</g>
<!-- riordino&#45;&gt;accessi -->
<g id="edge5" class="edge">
<title>riordino&#45;&gt;accessi</title>
<path fill="none" stroke="#495057" stroke-width="3.4" d="M1091.58,-597.52C1331.04,-596.43 1715.41,-594.68 1961.6,-593.56"/>
<polygon fill="#495057" stroke="#495057" stroke-width="3.4" points="1961.86,-596.01 1968.85,-593.53 1961.83,-591.11 1961.86,-596.01"/>
<text text-anchor="middle" x="1531" y="-600.1" font-family="DejaVu Sans" font-size="13.00">12 collegamenti</text>
</g>
<!-- riordino&#45;&gt;utenze -->
<g id="edge14" class="edge">
<title>riordino&#45;&gt;utenze</title>
<path fill="none" stroke="#495057" stroke-width="1.6" d="M1091.74,-559.45C1152.54,-548.5 1219.11,-536.51 1281.59,-525.25"/>
<polygon fill="#495057" stroke="#495057" stroke-width="1.6" points="1282.34,-527.61 1288.8,-523.95 1281.48,-522.78 1282.34,-527.61"/>
<text text-anchor="middle" x="1194" y="-550.1" font-family="DejaVu Sans" font-size="13.00">3 collegamenti</text>
</g>
<!-- network -->
<g id="node9" class="node">
<title>network</title>
<polygon fill="#023e8a" stroke="transparent" points="1318,-225.5 1318,-268.5 1744,-268.5 1744,-225.5 1318,-225.5"/>
<text text-anchor="start" x="1416.5" y="-242.1" font-family="DejaVu Sans" font-weight="bold" font-size="23.00" fill="#ffffff">Rete e dispositivi</text>
<polygon fill="#ffffff" stroke="transparent" points="1318,-189.5 1318,-225.5 1744,-225.5 1744,-189.5 1318,-189.5"/>
<text text-anchor="start" x="1486.5" y="-204.7" font-family="DejaVu Sans" font-weight="bold" font-size="16.00">14 tabelle</text>
<polygon fill="#ffffff" stroke="transparent" points="1318,-157.5 1318,-189.5 1744,-189.5 1744,-157.5 1318,-157.5"/>
<text text-anchor="start" x="1327" y="-170.1" font-family="DejaVu Sans" font-size="13.00">Monitora dispositivi, scansioni, firewall, alert, planimetrie e...</text>
</g>
<!-- network&#45;&gt;accessi -->
<g id="edge11" class="edge">
<title>network&#45;&gt;accessi</title>
<path fill="none" stroke="#495057" stroke-width="1.8" d="M1744.05,-245.39C1805.48,-260.46 1870.81,-282.46 1926,-314.5 2020.95,-369.61 2104.44,-467.55 2152.44,-531.24"/>
<polygon fill="#495057" stroke="#495057" stroke-width="1.8" points="2150.53,-532.78 2156.69,-536.92 2154.45,-529.84 2150.53,-532.78"/>
<text text-anchor="middle" x="1872" y="-318.1" font-family="DejaVu Sans" font-size="13.00">4 collegamenti</text>
</g>
<!-- gis -->
<g id="node10" class="node">
<title>gis</title>
<polygon fill="#008000" stroke="transparent" points="1287,-67.5 1287,-110.5 1775,-110.5 1775,-67.5 1287,-67.5"/>
<text text-anchor="start" x="1427" y="-84.1" font-family="DejaVu Sans" font-weight="bold" font-size="23.00" fill="#ffffff">Piattaforma GIS</text>
<polygon fill="#ffffff" stroke="transparent" points="1287,-31.5 1287,-67.5 1775,-67.5 1775,-31.5 1287,-31.5"/>
<text text-anchor="start" x="1492" y="-46.7" font-family="DejaVu Sans" font-weight="bold" font-size="16.00">7 tabelle</text>
<polygon fill="#ffffff" stroke="transparent" points="1287,0.5 1287,-31.5 1775,-31.5 1775,0.5 1287,0.5"/>
<text text-anchor="start" x="1296" y="-12.1" font-family="DejaVu Sans" font-size="13.00">Gestisce layer GIS, import shapefile, annotazioni, audit, permessi ed...</text>
</g>
<!-- gis&#45;&gt;accessi -->
<g id="edge6" class="edge">
<title>gis&#45;&gt;accessi</title>
<path fill="none" stroke="#495057" stroke-width="3" d="M1722.38,-111.01C1740.47,-118.18 1758.29,-126.02 1775,-134.5 1955.25,-226.01 2096.8,-428.72 2159.82,-530.98"/>
<polygon fill="#495057" stroke="#495057" stroke-width="3" points="2157.75,-532.28 2163.49,-536.97 2161.92,-529.72 2157.75,-532.28"/>
<text text-anchor="middle" x="1872" y="-233.1" font-family="DejaVu Sans" font-size="13.00">10 collegamenti</text>
</g>
<!-- wiki -->
<g id="node11" class="node">
<title>wiki</title>
<polygon fill="#6c757d" stroke="transparent" points="8.5,-572.5 8.5,-615.5 453.5,-615.5 453.5,-572.5 8.5,-572.5"/>
<text text-anchor="start" x="118.5" y="-589.1" font-family="DejaVu Sans" font-weight="bold" font-size="23.00" fill="#ffffff">Wiki e assistente</text>
<polygon fill="#ffffff" stroke="transparent" points="8.5,-536.5 8.5,-572.5 453.5,-572.5 453.5,-536.5 8.5,-536.5"/>
<text text-anchor="start" x="186.5" y="-551.7" font-family="DejaVu Sans" font-weight="bold" font-size="16.00">13 tabelle</text>
<polygon fill="#ffffff" stroke="transparent" points="8.5,-504.5 8.5,-536.5 453.5,-536.5 453.5,-504.5 8.5,-504.5"/>
<text text-anchor="start" x="17.5" y="-517.1" font-family="DejaVu Sans" font-size="13.00">Conserva conversazioni, richieste, chunk documentali, eventi,...</text>
</g>
<!-- inventario -->
<g id="node12" class="node">
<title>inventario</title>
<polygon fill="#bc6c25" stroke="transparent" points="0.5,-730.5 0.5,-773.5 461.5,-773.5 461.5,-730.5 0.5,-730.5"/>
<text text-anchor="start" x="77.5" y="-747.1" font-family="DejaVu Sans" font-weight="bold" font-size="23.00" fill="#ffffff">Inventario e magazzino</text>
<polygon fill="#ffffff" stroke="transparent" points="0.5,-694.5 0.5,-730.5 461.5,-730.5 461.5,-694.5 0.5,-694.5"/>
<text text-anchor="start" x="192" y="-709.7" font-family="DejaVu Sans" font-weight="bold" font-size="16.00">3 tabelle</text>
<polygon fill="#ffffff" stroke="transparent" points="0.5,-662.5 0.5,-694.5 461.5,-694.5 461.5,-662.5 0.5,-662.5"/>
<text text-anchor="start" x="9.5" y="-675.1" font-family="DejaVu Sans" font-size="13.00">Gestisce richieste di magazzino e collegamenti con segnalazioni...</text>
</g>
<!-- sync&#45;&gt;accessi -->
<g id="edge13" class="edge">
<title>sync&#45;&gt;accessi</title>
<path fill="none" stroke="#495057" stroke-width="1.8" d="M2609.93,-570.17C2595.42,-569.11 2581,-568.2 2567,-567.5 2523.11,-565.32 2476.32,-566.09 2431.31,-568.38"/>
<polygon fill="#495057" stroke="#495057" stroke-width="1.8" points="2430.96,-565.94 2424.1,-568.76 2431.22,-570.84 2430.96,-565.94"/>
<text text-anchor="middle" x="2517" y="-571.1" font-family="DejaVu Sans" font-size="13.00">4 collegamenti</text>
</g>
</g>
</svg>
