<?xml version="1.0" encoding="UTF-8" standalone="no"?>
<!DOCTYPE svg PUBLIC "-//W3C//DTD SVG 1.1//EN"
 "http://www.w3.org/Graphics/SVG/1.1/DTD/svg11.dtd">
<!-- Generated by graphviz version 2.43.0 (0)
 -->
<!-- Title: GAIAERD_gis Pages: 1 -->
<svg width="1060pt" height="1912pt"
 viewBox="0.00 0.00 1060.00 1912.00" xmlns="http://www.w3.org/2000/svg" xmlns:xlink="http://www.w3.org/1999/xlink">
<g id="graph0" class="graph" transform="scale(1 1) rotate(0) translate(18 1894)">
<title>GAIAERD_gis</title>
<!-- gis_annotations -->
<g id="node1" class="node">
<title>gis_annotations</title>
<polygon fill="#008000" stroke="transparent" points="24,-1250.5 24,-1277.5 213,-1277.5 213,-1250.5 24,-1250.5"/>
<polygon fill="none" stroke="#ced4da" points="24,-1250.5 24,-1277.5 213,-1277.5 213,-1250.5 24,-1250.5"/>
<text text-anchor="start" x="56.5" y="-1261.3" font-family="DejaVu Sans" font-weight="bold" font-size="14.00" fill="#ffffff">gis_annotations</text>
<polygon fill="#f8f9fa" stroke="transparent" points="24,-1228.5 24,-1250.5 213,-1250.5 213,-1228.5 24,-1228.5"/>
<polygon fill="none" stroke="#ced4da" points="24,-1228.5 24,-1250.5 213,-1250.5 213,-1228.5 24,-1228.5"/>
<text text-anchor="start" x="30" y="-1237.3" font-family="DejaVu Sans" font-size="9.00">Contiene dati relativi a gis annotations.</text>
<polygon fill="none" stroke="#ced4da" points="24,-1205.5 24,-1228.5 71,-1228.5 71,-1205.5 24,-1205.5"/>
<text text-anchor="start" x="30" y="-1214.8" font-family="DejaVu Sans" font-size="9.00">PK</text>
<polygon fill="none" stroke="#ced4da" points="71,-1205.5 71,-1228.5 213,-1228.5 213,-1205.5 71,-1205.5"/>
<text text-anchor="start" x="77" y="-1214.5" font-family="DejaVu Sans" font-size="10.00">id</text>
<polygon fill="none" stroke="#ced4da" points="24,-1182.5 24,-1205.5 71,-1205.5 71,-1182.5 24,-1182.5"/>
<text text-anchor="start" x="30" y="-1191.8" font-family="DejaVu Sans" font-size="9.00">FK</text>
<polygon fill="none" stroke="#ced4da" points="71,-1182.5 71,-1205.5 213,-1205.5 213,-1182.5 71,-1182.5"/>
<text text-anchor="start" x="77" y="-1191.5" font-family="DejaVu Sans" font-size="10.00">layer_id</text>
<polygon fill="none" stroke="#ced4da" points="24,-1159.5 24,-1182.5 71,-1182.5 71,-1159.5 24,-1159.5"/>
<text text-anchor="start" x="30" y="-1168.8" font-family="DejaVu Sans" font-size="9.00"> </text>
<polygon fill="none" stroke="#ced4da" points="71,-1159.5 71,-1182.5 213,-1182.5 213,-1159.5 71,-1159.5"/>
<text text-anchor="start" x="77" y="-1168.5" font-family="DejaVu Sans" font-size="10.00">feature_id</text>
<polygon fill="none" stroke="#ced4da" points="24,-1136.5 24,-1159.5 71,-1159.5 71,-1136.5 24,-1136.5"/>
<text text-anchor="start" x="30" y="-1145.8" font-family="DejaVu Sans" font-size="9.00"> </text>
<polygon fill="none" stroke="#ced4da" points="71,-1136.5 71,-1159.5 213,-1159.5 213,-1136.5 71,-1136.5"/>
<text text-anchor="start" x="77" y="-1145.5" font-family="DejaVu Sans" font-size="10.00">title</text>
<polygon fill="none" stroke="#ced4da" points="24,-1113.5 24,-1136.5 71,-1136.5 71,-1113.5 24,-1113.5"/>
<text text-anchor="start" x="30" y="-1122.8" font-family="DejaVu Sans" font-size="9.00"> </text>
<polygon fill="none" stroke="#ced4da" points="71,-1113.5 71,-1136.5 213,-1136.5 213,-1113.5 71,-1113.5"/>
<text text-anchor="start" x="77" y="-1122.5" font-family="DejaVu Sans" font-size="10.00">body</text>
<polygon fill="none" stroke="#ced4da" points="24,-1090.5 24,-1113.5 71,-1113.5 71,-1090.5 24,-1090.5"/>
<text text-anchor="start" x="30" y="-1099.8" font-family="DejaVu Sans" font-size="9.00"> </text>
<polygon fill="none" stroke="#ced4da" points="71,-1090.5 71,-1113.5 213,-1113.5 213,-1090.5 71,-1090.5"/>
<text text-anchor="start" x="77" y="-1099.5" font-family="DejaVu Sans" font-size="10.00">geometry_json</text>
<polygon fill="none" stroke="#ced4da" points="24,-1067.5 24,-1090.5 71,-1090.5 71,-1067.5 24,-1067.5"/>
<text text-anchor="start" x="30" y="-1076.8" font-family="DejaVu Sans" font-size="9.00"> </text>
<polygon fill="none" stroke="#ced4da" points="71,-1067.5 71,-1090.5 213,-1090.5 213,-1067.5 71,-1067.5"/>
<text text-anchor="start" x="77" y="-1076.5" font-family="DejaVu Sans" font-size="10.00">attachment_refs_json</text>
<polygon fill="none" stroke="#ced4da" points="24,-1044.5 24,-1067.5 71,-1067.5 71,-1044.5 24,-1044.5"/>
<text text-anchor="start" x="30" y="-1053.8" font-family="DejaVu Sans" font-size="9.00"> </text>
<polygon fill="none" stroke="#ced4da" points="71,-1044.5 71,-1067.5 213,-1067.5 213,-1044.5 71,-1044.5"/>
<text text-anchor="start" x="77" y="-1053.5" font-family="DejaVu Sans" font-size="10.00">status</text>
<polygon fill="none" stroke="#ced4da" points="24,-1021.5 24,-1044.5 71,-1044.5 71,-1021.5 24,-1021.5"/>
<text text-anchor="start" x="30" y="-1030.8" font-family="DejaVu Sans" font-size="9.00">FK</text>
<polygon fill="none" stroke="#ced4da" points="71,-1021.5 71,-1044.5 213,-1044.5 213,-1021.5 71,-1021.5"/>
<text text-anchor="start" x="77" y="-1030.5" font-family="DejaVu Sans" font-size="10.00">created_by_user_id</text>
<polygon fill="none" stroke="#ced4da" points="24,-998.5 24,-1021.5 71,-1021.5 71,-998.5 24,-998.5"/>
<text text-anchor="start" x="30" y="-1007.8" font-family="DejaVu Sans" font-size="9.00"> </text>
<polygon fill="none" stroke="#ced4da" points="71,-998.5 71,-1021.5 213,-1021.5 213,-998.5 71,-998.5"/>
<text text-anchor="start" x="77" y="-1007.5" font-family="DejaVu Sans" font-size="10.00">created_at</text>
<polygon fill="none" stroke="#ced4da" points="24,-976.5 24,-998.5 71,-998.5 71,-976.5 24,-976.5"/>
<polygon fill="none" stroke="#ced4da" points="71,-976.5 71,-998.5 213,-998.5 213,-976.5 71,-976.5"/>
<text text-anchor="start" x="77" y="-985.3" font-family="DejaVu Sans" font-size="9.00">+ 1 colonne</text>
</g>
<!-- gis_layers -->
<g id="node6" class="node">
<title>gis_layers</title>
<polygon fill="#008000" stroke="transparent" points="394,-1046.5 394,-1073.5 668,-1073.5 668,-1046.5 394,-1046.5"/>
<polygon fill="none" stroke="#ced4da" points="394,-1046.5 394,-1073.5 668,-1073.5 668,-1046.5 394,-1046.5"/>
<text text-anchor="start" x="492.5" y="-1057.3" font-family="DejaVu Sans" font-weight="bold" font-size="14.00" fill="#ffffff">gis_layers</text>
<polygon fill="#f8f9fa" stroke="transparent" points="394,-1024.5 394,-1046.5 668,-1046.5 668,-1024.5 394,-1024.5"/>
<polygon fill="none" stroke="#ced4da" points="394,-1024.5 394,-1046.5 668,-1046.5 668,-1024.5 394,-1024.5"/>
<text text-anchor="start" x="400" y="-1033.3" font-family="DejaVu Sans" font-size="9.00">Layer geografici pubblicati o gestiti dalla piattaforma GIS.</text>
<polygon fill="none" stroke="#ced4da" points="394,-1001.5 394,-1024.5 497,-1024.5 497,-1001.5 394,-1001.5"/>
<text text-anchor="start" x="400" y="-1010.8" font-family="DejaVu Sans" font-size="9.00">PK</text>
<polygon fill="none" stroke="#ced4da" points="497,-1001.5 497,-1024.5 668,-1024.5 668,-1001.5 497,-1001.5"/>
<text text-anchor="start" x="503" y="-1010.5" font-family="DejaVu Sans" font-size="10.00">id</text>
<polygon fill="none" stroke="#ced4da" points="394,-978.5 394,-1001.5 497,-1001.5 497,-978.5 394,-978.5"/>
<text text-anchor="start" x="400" y="-987.8" font-family="DejaVu Sans" font-size="9.00"> </text>
<polygon fill="none" stroke="#ced4da" points="497,-978.5 497,-1001.5 668,-1001.5 668,-978.5 497,-978.5"/>
<text text-anchor="start" x="503" y="-987.5" font-family="DejaVu Sans" font-size="10.00">workspace</text>
<polygon fill="none" stroke="#ced4da" points="394,-955.5 394,-978.5 497,-978.5 497,-955.5 394,-955.5"/>
<text text-anchor="start" x="400" y="-964.8" font-family="DejaVu Sans" font-size="9.00"> </text>
<polygon fill="none" stroke="#ced4da" points="497,-955.5 497,-978.5 668,-978.5 668,-955.5 497,-955.5"/>
<text text-anchor="start" x="503" y="-964.5" font-family="DejaVu Sans" font-size="10.00">name</text>
<polygon fill="none" stroke="#ced4da" points="394,-932.5 394,-955.5 497,-955.5 497,-932.5 394,-932.5"/>
<text text-anchor="start" x="400" y="-941.8" font-family="DejaVu Sans" font-size="9.00"> </text>
<polygon fill="none" stroke="#ced4da" points="497,-932.5 497,-955.5 668,-955.5 668,-932.5 497,-932.5"/>
<text text-anchor="start" x="503" y="-941.5" font-family="DejaVu Sans" font-size="10.00">title</text>
<polygon fill="none" stroke="#ced4da" points="394,-909.5 394,-932.5 497,-932.5 497,-909.5 394,-909.5"/>
<text text-anchor="start" x="400" y="-918.8" font-family="DejaVu Sans" font-size="9.00"> </text>
<polygon fill="none" stroke="#ced4da" points="497,-909.5 497,-932.5 668,-932.5 668,-909.5 497,-909.5"/>
<text text-anchor="start" x="503" y="-918.5" font-family="DejaVu Sans" font-size="10.00">description</text>
<polygon fill="none" stroke="#ced4da" points="394,-886.5 394,-909.5 497,-909.5 497,-886.5 394,-886.5"/>
<text text-anchor="start" x="400" y="-895.8" font-family="DejaVu Sans" font-size="9.00"> </text>
<polygon fill="none" stroke="#ced4da" points="497,-886.5 497,-909.5 668,-909.5 668,-886.5 497,-886.5"/>
<text text-anchor="start" x="503" y="-895.5" font-family="DejaVu Sans" font-size="10.00">domain_module</text>
<polygon fill="none" stroke="#ced4da" points="394,-863.5 394,-886.5 497,-886.5 497,-863.5 394,-863.5"/>
<text text-anchor="start" x="400" y="-872.8" font-family="DejaVu Sans" font-size="9.00"> </text>
<polygon fill="none" stroke="#ced4da" points="497,-863.5 497,-886.5 668,-886.5 668,-863.5 497,-863.5"/>
<text text-anchor="start" x="503" y="-872.5" font-family="DejaVu Sans" font-size="10.00">source_type</text>
<polygon fill="none" stroke="#ced4da" points="394,-840.5 394,-863.5 497,-863.5 497,-840.5 394,-840.5"/>
<text text-anchor="start" x="400" y="-849.8" font-family="DejaVu Sans" font-size="9.00"> </text>
<polygon fill="none" stroke="#ced4da" points="497,-840.5 497,-863.5 668,-863.5 668,-840.5 497,-840.5"/>
<text text-anchor="start" x="503" y="-849.5" font-family="DejaVu Sans" font-size="10.00">official_source</text>
<polygon fill="none" stroke="#ced4da" points="394,-817.5 394,-840.5 497,-840.5 497,-817.5 394,-817.5"/>
<text text-anchor="start" x="400" y="-826.8" font-family="DejaVu Sans" font-size="9.00"> </text>
<polygon fill="none" stroke="#ced4da" points="497,-817.5 497,-840.5 668,-840.5 668,-817.5 497,-817.5"/>
<text text-anchor="start" x="503" y="-826.5" font-family="DejaVu Sans" font-size="10.00">postgis_schema</text>
<polygon fill="none" stroke="#ced4da" points="394,-794.5 394,-817.5 497,-817.5 497,-794.5 394,-794.5"/>
<text text-anchor="start" x="400" y="-803.8" font-family="DejaVu Sans" font-size="9.00"> </text>
<polygon fill="none" stroke="#ced4da" points="497,-794.5 497,-817.5 668,-817.5 668,-794.5 497,-794.5"/>
<text text-anchor="start" x="503" y="-803.5" font-family="DejaVu Sans" font-size="10.00">postgis_table</text>
<polygon fill="none" stroke="#ced4da" points="394,-772.5 394,-794.5 497,-794.5 497,-772.5 394,-772.5"/>
<polygon fill="none" stroke="#ced4da" points="497,-772.5 497,-794.5 668,-794.5 668,-772.5 497,-772.5"/>
<text text-anchor="start" x="503" y="-781.3" font-family="DejaVu Sans" font-size="9.00">+ 14 colonne</text>
</g>
<!-- gis_annotations&#45;&gt;gis_layers -->
<g id="edge2" class="edge">
<title>gis_annotations&#45;&gt;gis_layers</title>
<path fill="none" stroke="#495057" d="M212.79,-1060.67C231.03,-1048.92 250.3,-1037.32 269,-1027.5 306.56,-1007.77 348.72,-989.45 388.03,-973.85"/>
<polygon fill="#495057" stroke="#495057" points="388.99,-975.72 393.8,-971.57 387.45,-971.82 388.99,-975.72"/>
<text text-anchor="middle" x="315" y="-1030.5" font-family="DejaVu Sans" font-size="10.00">layer_id</text>
</g>
<!-- application_users -->
<g id="node8" class="node">
<title>application_users</title>
<polygon fill="#e9ecef" stroke="transparent" points="832,-1046.5 832,-1073.5 1024,-1073.5 1024,-1046.5 832,-1046.5"/>
<polygon fill="none" stroke="#ced4da" points="832,-1046.5 832,-1073.5 1024,-1073.5 1024,-1046.5 832,-1046.5"/>
<text text-anchor="start" x="859.5" y="-1057.3" font-family="DejaVu Sans" font-weight="bold" font-size="14.00" fill="#343a40">application_users</text>
<polygon fill="#f8f9fa" stroke="transparent" points="832,-1024.5 832,-1046.5 1024,-1046.5 1024,-1024.5 832,-1024.5"/>
<polygon fill="none" stroke="#ced4da" points="832,-1024.5 832,-1046.5 1024,-1046.5 1024,-1024.5 832,-1024.5"/>
<text text-anchor="start" x="838" y="-1033.3" font-family="DejaVu Sans" font-size="9.00">Riferimento esterno: Accessi e permessi</text>
<polygon fill="none" stroke="#ced4da" points="832,-1001.5 832,-1024.5 892,-1024.5 892,-1001.5 832,-1001.5"/>
<text text-anchor="start" x="838" y="-1010.8" font-family="DejaVu Sans" font-size="9.00">PK</text>
<polygon fill="none" stroke="#ced4da" points="892,-1001.5 892,-1024.5 1024,-1024.5 1024,-1001.5 892,-1001.5"/>
<text text-anchor="start" x="898" y="-1010.5" font-family="DejaVu Sans" font-size="10.00">id</text>
<polygon fill="none" stroke="#ced4da" points="832,-978.5 832,-1001.5 892,-1001.5 892,-978.5 832,-978.5"/>
<text text-anchor="start" x="838" y="-987.8" font-family="DejaVu Sans" font-size="9.00"> </text>
<polygon fill="none" stroke="#ced4da" points="892,-978.5 892,-1001.5 1024,-1001.5 1024,-978.5 892,-978.5"/>
<text text-anchor="start" x="898" y="-987.5" font-family="DejaVu Sans" font-size="10.00">username</text>
<polygon fill="none" stroke="#ced4da" points="832,-955.5 832,-978.5 892,-978.5 892,-955.5 832,-955.5"/>
<text text-anchor="start" x="838" y="-964.8" font-family="DejaVu Sans" font-size="9.00"> </text>
<polygon fill="none" stroke="#ced4da" points="892,-955.5 892,-978.5 1024,-978.5 1024,-955.5 892,-955.5"/>
<text text-anchor="start" x="898" y="-964.5" font-family="DejaVu Sans" font-size="10.00">email</text>
<polygon fill="none" stroke="#ced4da" points="832,-932.5 832,-955.5 892,-955.5 892,-932.5 832,-932.5"/>
<text text-anchor="start" x="838" y="-941.8" font-family="DejaVu Sans" font-size="9.00"> </text>
<polygon fill="none" stroke="#ced4da" points="892,-932.5 892,-955.5 1024,-955.5 1024,-932.5 892,-932.5"/>
<text text-anchor="start" x="898" y="-941.5" font-family="DejaVu Sans" font-size="10.00">full_name</text>
<polygon fill="none" stroke="#ced4da" points="832,-909.5 832,-932.5 892,-932.5 892,-909.5 832,-909.5"/>
<text text-anchor="start" x="838" y="-918.8" font-family="DejaVu Sans" font-size="9.00"> </text>
<polygon fill="none" stroke="#ced4da" points="892,-909.5 892,-932.5 1024,-932.5 1024,-909.5 892,-909.5"/>
<text text-anchor="start" x="898" y="-918.5" font-family="DejaVu Sans" font-size="10.00">office_location</text>
<polygon fill="none" stroke="#ced4da" points="832,-886.5 832,-909.5 892,-909.5 892,-886.5 832,-886.5"/>
<text text-anchor="start" x="838" y="-895.8" font-family="DejaVu Sans" font-size="9.00"> </text>
<polygon fill="none" stroke="#ced4da" points="892,-886.5 892,-909.5 1024,-909.5 1024,-886.5 892,-886.5"/>
<text text-anchor="start" x="898" y="-895.5" font-family="DejaVu Sans" font-size="10.00">phone_extension</text>
<polygon fill="none" stroke="#ced4da" points="832,-863.5 832,-886.5 892,-886.5 892,-863.5 832,-863.5"/>
<text text-anchor="start" x="838" y="-872.8" font-family="DejaVu Sans" font-size="9.00"> </text>
<polygon fill="none" stroke="#ced4da" points="892,-863.5 892,-886.5 1024,-886.5 1024,-863.5 892,-863.5"/>
<text text-anchor="start" x="898" y="-872.5" font-family="DejaVu Sans" font-size="10.00">password_hash</text>
<polygon fill="none" stroke="#ced4da" points="832,-840.5 832,-863.5 892,-863.5 892,-840.5 832,-840.5"/>
<text text-anchor="start" x="838" y="-849.8" font-family="DejaVu Sans" font-size="9.00"> </text>
<polygon fill="none" stroke="#ced4da" points="892,-840.5 892,-863.5 1024,-863.5 1024,-840.5 892,-840.5"/>
<text text-anchor="start" x="898" y="-849.5" font-family="DejaVu Sans" font-size="10.00">role</text>
<polygon fill="none" stroke="#ced4da" points="832,-817.5 832,-840.5 892,-840.5 892,-817.5 832,-817.5"/>
<text text-anchor="start" x="838" y="-826.8" font-family="DejaVu Sans" font-size="9.00"> </text>
<polygon fill="none" stroke="#ced4da" points="892,-817.5 892,-840.5 1024,-840.5 1024,-817.5 892,-817.5"/>
<text text-anchor="start" x="898" y="-826.5" font-family="DejaVu Sans" font-size="10.00">is_active</text>
<polygon fill="none" stroke="#ced4da" points="832,-794.5 832,-817.5 892,-817.5 892,-794.5 832,-794.5"/>
<text text-anchor="start" x="838" y="-803.8" font-family="DejaVu Sans" font-size="9.00"> </text>
<polygon fill="none" stroke="#ced4da" points="892,-794.5 892,-817.5 1024,-817.5 1024,-794.5 892,-794.5"/>
<text text-anchor="start" x="898" y="-803.5" font-family="DejaVu Sans" font-size="10.00">module_accessi</text>
<polygon fill="none" stroke="#ced4da" points="832,-772.5 832,-794.5 892,-794.5 892,-772.5 832,-772.5"/>
<polygon fill="none" stroke="#ced4da" points="892,-772.5 892,-794.5 1024,-794.5 1024,-772.5 892,-772.5"/>
<text text-anchor="start" x="898" y="-781.3" font-family="DejaVu Sans" font-size="9.00">+ 15 colonne</text>
</g>
<!-- gis_annotations&#45;&gt;application_users -->
<g id="edge1" class="edge">
<title>gis_annotations&#45;&gt;application_users</title>
<path fill="none" stroke="#495057" d="M212.71,-1135.69C324.38,-1142.2 515.05,-1142.92 668,-1090.5 724.52,-1071.13 781.02,-1036.87 826.76,-1004.41"/>
<polygon fill="#495057" stroke="#495057" points="828.05,-1006.07 831.72,-1000.87 825.61,-1002.65 828.05,-1006.07"/>
<text text-anchor="middle" x="531" y="-1139.5" font-family="DejaVu Sans" font-size="10.00">created_by_user_id</text>
</g>
<!-- gis_audit_logs -->
<g id="node2" class="node">
<title>gis_audit_logs</title>
<polygon fill="#008000" stroke="transparent" points="30,-1515.5 30,-1542.5 207,-1542.5 207,-1515.5 30,-1515.5"/>
<polygon fill="none" stroke="#ced4da" points="30,-1515.5 30,-1542.5 207,-1542.5 207,-1515.5 30,-1515.5"/>
<text text-anchor="start" x="64" y="-1526.3" font-family="DejaVu Sans" font-weight="bold" font-size="14.00" fill="#ffffff">gis_audit_logs</text>
<polygon fill="#f8f9fa" stroke="transparent" points="30,-1493.5 30,-1515.5 207,-1515.5 207,-1493.5 30,-1493.5"/>
<polygon fill="none" stroke="#ced4da" points="30,-1493.5 30,-1515.5 207,-1515.5 207,-1493.5 30,-1493.5"/>
<text text-anchor="start" x="36" y="-1502.3" font-family="DejaVu Sans" font-size="9.00">Registra dati relativi a gis audit logs.</text>
<polygon fill="none" stroke="#ced4da" points="30,-1470.5 30,-1493.5 91,-1493.5 91,-1470.5 30,-1470.5"/>
<text text-anchor="start" x="36" y="-1479.8" font-family="DejaVu Sans" font-size="9.00">PK</text>
<polygon fill="none" stroke="#ced4da" points="91,-1470.5 91,-1493.5 207,-1493.5 207,-1470.5 91,-1470.5"/>
<text text-anchor="start" x="97" y="-1479.5" font-family="DejaVu Sans" font-size="10.00">id</text>
<polygon fill="none" stroke="#ced4da" points="30,-1447.5 30,-1470.5 91,-1470.5 91,-1447.5 30,-1447.5"/>
<text text-anchor="start" x="36" y="-1456.8" font-family="DejaVu Sans" font-size="9.00">FK</text>
<polygon fill="none" stroke="#ced4da" points="91,-1447.5 91,-1470.5 207,-1470.5 207,-1447.5 91,-1447.5"/>
<text text-anchor="start" x="97" y="-1456.5" font-family="DejaVu Sans" font-size="10.00">layer_id</text>
<polygon fill="none" stroke="#ced4da" points="30,-1424.5 30,-1447.5 91,-1447.5 91,-1424.5 30,-1424.5"/>
<text text-anchor="start" x="36" y="-1433.8" font-family="DejaVu Sans" font-size="9.00"> </text>
<polygon fill="none" stroke="#ced4da" points="91,-1424.5 91,-1447.5 207,-1447.5 207,-1424.5 91,-1424.5"/>
<text text-anchor="start" x="97" y="-1433.5" font-family="DejaVu Sans" font-size="10.00">event_type</text>
<polygon fill="none" stroke="#ced4da" points="30,-1401.5 30,-1424.5 91,-1424.5 91,-1401.5 30,-1401.5"/>
<text text-anchor="start" x="36" y="-1410.8" font-family="DejaVu Sans" font-size="9.00">FK</text>
<polygon fill="none" stroke="#ced4da" points="91,-1401.5 91,-1424.5 207,-1424.5 207,-1401.5 91,-1401.5"/>
<text text-anchor="start" x="97" y="-1410.5" font-family="DejaVu Sans" font-size="10.00">actor_user_id</text>
<polygon fill="none" stroke="#ced4da" points="30,-1378.5 30,-1401.5 91,-1401.5 91,-1378.5 30,-1378.5"/>
<text text-anchor="start" x="36" y="-1387.8" font-family="DejaVu Sans" font-size="9.00"> </text>
<polygon fill="none" stroke="#ced4da" points="91,-1378.5 91,-1401.5 207,-1401.5 207,-1378.5 91,-1378.5"/>
<text text-anchor="start" x="97" y="-1387.5" font-family="DejaVu Sans" font-size="10.00">target_type</text>
<polygon fill="none" stroke="#ced4da" points="30,-1355.5 30,-1378.5 91,-1378.5 91,-1355.5 30,-1355.5"/>
<text text-anchor="start" x="36" y="-1364.8" font-family="DejaVu Sans" font-size="9.00"> </text>
<polygon fill="none" stroke="#ced4da" points="91,-1355.5 91,-1378.5 207,-1378.5 207,-1355.5 91,-1355.5"/>
<text text-anchor="start" x="97" y="-1364.5" font-family="DejaVu Sans" font-size="10.00">target_id</text>
<polygon fill="none" stroke="#ced4da" points="30,-1332.5 30,-1355.5 91,-1355.5 91,-1332.5 30,-1332.5"/>
<text text-anchor="start" x="36" y="-1341.8" font-family="DejaVu Sans" font-size="9.00"> </text>
<polygon fill="none" stroke="#ced4da" points="91,-1332.5 91,-1355.5 207,-1355.5 207,-1332.5 91,-1332.5"/>
<text text-anchor="start" x="97" y="-1341.5" font-family="DejaVu Sans" font-size="10.00">payload_json</text>
<polygon fill="none" stroke="#ced4da" points="30,-1309.5 30,-1332.5 91,-1332.5 91,-1309.5 30,-1309.5"/>
<text text-anchor="start" x="36" y="-1318.8" font-family="DejaVu Sans" font-size="9.00"> </text>
<polygon fill="none" stroke="#ced4da" points="91,-1309.5 91,-1332.5 207,-1332.5 207,-1309.5 91,-1309.5"/>
<text text-anchor="start" x="97" y="-1318.5" font-family="DejaVu Sans" font-size="10.00">created_at</text>
</g>
<!-- gis_audit_logs&#45;&gt;gis_layers -->
<g id="edge4" class="edge">
<title>gis_audit_logs&#45;&gt;gis_layers</title>
<path fill="none" stroke="#495057" d="M206.59,-1337.7C217.48,-1323.93 227.69,-1309.33 236,-1294.5 260.54,-1250.72 243.24,-1229.57 269,-1186.5 300.85,-1133.26 345.74,-1082.81 389.33,-1040.6"/>
<polygon fill="#495057" stroke="#495057" points="390.95,-1041.96 393.81,-1036.28 388.03,-1038.93 390.95,-1041.96"/>
<text text-anchor="middle" x="315" y="-1189.5" font-family="DejaVu Sans" font-size="10.00">layer_id</text>
</g>
<!-- gis_audit_logs&#45;&gt;application_users -->
<g id="edge3" class="edge">
<title>gis_audit_logs&#45;&gt;application_users</title>
<path fill="none" stroke="#495057" d="M206.66,-1396.41C344.13,-1346.11 613.8,-1234.55 799,-1075.5 808.76,-1067.12 818.39,-1057.95 827.73,-1048.41"/>
<polygon fill="#495057" stroke="#495057" points="829.33,-1049.77 831.99,-1044 826.31,-1046.85 829.33,-1049.77"/>
<text text-anchor="middle" x="531" y="-1319.5" font-family="DejaVu Sans" font-size="10.00">actor_user_id</text>
</g>
<!-- gis_change_requests -->
<g id="node3" class="node">
<title>gis_change_requests</title>
<polygon fill="#008000" stroke="transparent" points="13,-1848.5 13,-1875.5 224,-1875.5 224,-1848.5 13,-1848.5"/>
<polygon fill="none" stroke="#ced4da" points="13,-1848.5 13,-1875.5 224,-1875.5 224,-1848.5 13,-1848.5"/>
<text text-anchor="start" x="37" y="-1859.3" font-family="DejaVu Sans" font-weight="bold" font-size="14.00" fill="#ffffff">gis_change_requests</text>
<polygon fill="#f8f9fa" stroke="transparent" points="13,-1826.5 13,-1848.5 224,-1848.5 224,-1826.5 13,-1826.5"/>
<polygon fill="none" stroke="#ced4da" points="13,-1826.5 13,-1848.5 224,-1848.5 224,-1826.5 13,-1826.5"/>
<text text-anchor="start" x="19" y="-1835.3" font-family="DejaVu Sans" font-size="9.00">Contiene dati relativi a gis change richieste.</text>
<polygon fill="none" stroke="#ced4da" points="13,-1803.5 13,-1826.5 71,-1826.5 71,-1803.5 13,-1803.5"/>
<text text-anchor="start" x="19" y="-1812.8" font-family="DejaVu Sans" font-size="9.00">PK</text>
<polygon fill="none" stroke="#ced4da" points="71,-1803.5 71,-1826.5 224,-1826.5 224,-1803.5 71,-1803.5"/>
<text text-anchor="start" x="77" y="-1812.5" font-family="DejaVu Sans" font-size="10.00">id</text>
<polygon fill="none" stroke="#ced4da" points="13,-1780.5 13,-1803.5 71,-1803.5 71,-1780.5 13,-1780.5"/>
<text text-anchor="start" x="19" y="-1789.8" font-family="DejaVu Sans" font-size="9.00">FK</text>
<polygon fill="none" stroke="#ced4da" points="71,-1780.5 71,-1803.5 224,-1803.5 224,-1780.5 71,-1780.5"/>
<text text-anchor="start" x="77" y="-1789.5" font-family="DejaVu Sans" font-size="10.00">layer_id</text>
<polygon fill="none" stroke="#ced4da" points="13,-1757.5 13,-1780.5 71,-1780.5 71,-1757.5 13,-1757.5"/>
<text text-anchor="start" x="19" y="-1766.8" font-family="DejaVu Sans" font-size="9.00"> </text>
<polygon fill="none" stroke="#ced4da" points="71,-1757.5 71,-1780.5 224,-1780.5 224,-1757.5 71,-1757.5"/>
<text text-anchor="start" x="77" y="-1766.5" font-family="DejaVu Sans" font-size="10.00">feature_id</text>
<polygon fill="none" stroke="#ced4da" points="13,-1734.5 13,-1757.5 71,-1757.5 71,-1734.5 13,-1734.5"/>
<text text-anchor="start" x="19" y="-1743.8" font-family="DejaVu Sans" font-size="9.00"> </text>
<polygon fill="none" stroke="#ced4da" points="71,-1734.5 71,-1757.5 224,-1757.5 224,-1734.5 71,-1734.5"/>
<text text-anchor="start" x="77" y="-1743.5" font-family="DejaVu Sans" font-size="10.00">change_type</text>
<polygon fill="none" stroke="#ced4da" points="13,-1711.5 13,-1734.5 71,-1734.5 71,-1711.5 13,-1711.5"/>
<text text-anchor="start" x="19" y="-1720.8" font-family="DejaVu Sans" font-size="9.00"> </text>
<polygon fill="none" stroke="#ced4da" points="71,-1711.5 71,-1734.5 224,-1734.5 224,-1711.5 71,-1711.5"/>
<text text-anchor="start" x="77" y="-1720.5" font-family="DejaVu Sans" font-size="10.00">status</text>
<polygon fill="none" stroke="#ced4da" points="13,-1688.5 13,-1711.5 71,-1711.5 71,-1688.5 13,-1688.5"/>
<text text-anchor="start" x="19" y="-1697.8" font-family="DejaVu Sans" font-size="9.00"> </text>
<polygon fill="none" stroke="#ced4da" points="71,-1688.5 71,-1711.5 224,-1711.5 224,-1688.5 71,-1688.5"/>
<text text-anchor="start" x="77" y="-1697.5" font-family="DejaVu Sans" font-size="10.00">payload_json</text>
<polygon fill="none" stroke="#ced4da" points="13,-1665.5 13,-1688.5 71,-1688.5 71,-1665.5 13,-1665.5"/>
<text text-anchor="start" x="19" y="-1674.8" font-family="DejaVu Sans" font-size="9.00"> </text>
<polygon fill="none" stroke="#ced4da" points="71,-1665.5 71,-1688.5 224,-1688.5 224,-1665.5 71,-1665.5"/>
<text text-anchor="start" x="77" y="-1674.5" font-family="DejaVu Sans" font-size="10.00">justification</text>
<polygon fill="none" stroke="#ced4da" points="13,-1642.5 13,-1665.5 71,-1665.5 71,-1642.5 13,-1642.5"/>
<text text-anchor="start" x="19" y="-1651.8" font-family="DejaVu Sans" font-size="9.00">FK</text>
<polygon fill="none" stroke="#ced4da" points="71,-1642.5 71,-1665.5 224,-1665.5 224,-1642.5 71,-1642.5"/>
<text text-anchor="start" x="77" y="-1651.5" font-family="DejaVu Sans" font-size="10.00">requested_by_user_id</text>
<polygon fill="none" stroke="#ced4da" points="13,-1619.5 13,-1642.5 71,-1642.5 71,-1619.5 13,-1619.5"/>
<text text-anchor="start" x="19" y="-1628.8" font-family="DejaVu Sans" font-size="9.00">FK</text>
<polygon fill="none" stroke="#ced4da" points="71,-1619.5 71,-1642.5 224,-1642.5 224,-1619.5 71,-1619.5"/>
<text text-anchor="start" x="77" y="-1628.5" font-family="DejaVu Sans" font-size="10.00">reviewed_by_user_id</text>
<polygon fill="none" stroke="#ced4da" points="13,-1596.5 13,-1619.5 71,-1619.5 71,-1596.5 13,-1596.5"/>
<text text-anchor="start" x="19" y="-1605.8" font-family="DejaVu Sans" font-size="9.00"> </text>
<polygon fill="none" stroke="#ced4da" points="71,-1596.5 71,-1619.5 224,-1619.5 224,-1596.5 71,-1596.5"/>
<text text-anchor="start" x="77" y="-1605.5" font-family="DejaVu Sans" font-size="10.00">review_notes</text>
<polygon fill="none" stroke="#ced4da" points="13,-1574.5 13,-1596.5 71,-1596.5 71,-1574.5 13,-1574.5"/>
<polygon fill="none" stroke="#ced4da" points="71,-1574.5 71,-1596.5 224,-1596.5 224,-1574.5 71,-1574.5"/>
<text text-anchor="start" x="77" y="-1583.3" font-family="DejaVu Sans" font-size="9.00">+ 3 colonne</text>
</g>
<!-- gis_change_requests&#45;&gt;gis_layers -->
<g id="edge7" class="edge">
<title>gis_change_requests&#45;&gt;gis_layers</title>
<path fill="none" stroke="#495057" d="M223.57,-1582.15C227.96,-1574.6 232.13,-1567.03 236,-1559.5 313.07,-1409.62 307.51,-1361.32 361,-1201.5 376.26,-1155.92 371.57,-1141.02 394,-1098.5 397.37,-1092.12 400.97,-1085.73 404.75,-1079.38"/>
<polygon fill="#495057" stroke="#495057" points="406.67,-1080.27 407.98,-1074.05 403.08,-1078.1 406.67,-1080.27"/>
<text text-anchor="middle" x="315" y="-1489.5" font-family="DejaVu Sans" font-size="10.00">layer_id</text>
</g>
<!-- gis_change_requests&#45;&gt;application_users -->
<g id="edge5" class="edge">
<title>gis_change_requests&#45;&gt;application_users</title>
<path fill="none" stroke="#495057" d="M223.65,-1734.52C373.33,-1741.19 647.22,-1729.2 799,-1573.5 865.95,-1504.83 899.99,-1249.77 915.59,-1080.32"/>
<polygon fill="#495057" stroke="#495057" points="917.68,-1080.49 916.14,-1074.33 913.5,-1080.11 917.68,-1080.49"/>
<text text-anchor="middle" x="531" y="-1733.5" font-family="DejaVu Sans" font-size="10.00">requested_by_user_id</text>
</g>
<!-- gis_change_requests&#45;&gt;application_users -->
<g id="edge6" class="edge">
<title>gis_change_requests&#45;&gt;application_users</title>
<path fill="none" stroke="#495057" d="M223.61,-1667.4C341.07,-1598.7 532.88,-1475.83 668,-1335.5 741.7,-1258.96 742.42,-1225.44 799,-1135.5 810.35,-1117.45 822.11,-1098.44 833.69,-1079.52"/>
<polygon fill="#495057" stroke="#495057" points="835.61,-1080.4 836.95,-1074.19 832.03,-1078.21 835.61,-1080.4"/>
<text text-anchor="middle" x="531" y="-1557.5" font-family="DejaVu Sans" font-size="10.00">reviewed_by_user_id</text>
</g>
<!-- gis_layer_exports -->
<g id="node4" class="node">
<title>gis_layer_exports</title>
<polygon fill="#008000" stroke="transparent" points="21,-917.5 21,-944.5 215,-944.5 215,-917.5 21,-917.5"/>
<polygon fill="none" stroke="#ced4da" points="21,-917.5 21,-944.5 215,-944.5 215,-917.5 21,-917.5"/>
<text text-anchor="start" x="50" y="-928.3" font-family="DejaVu Sans" font-weight="bold" font-size="14.00" fill="#ffffff">gis_layer_exports</text>
<polygon fill="#f8f9fa" stroke="transparent" points="21,-895.5 21,-917.5 215,-917.5 215,-895.5 21,-895.5"/>
<polygon fill="none" stroke="#ced4da" points="21,-895.5 21,-917.5 215,-917.5 215,-895.5 21,-895.5"/>
<text text-anchor="start" x="27" y="-904.3" font-family="DejaVu Sans" font-size="9.00">Contiene dati relativi a gis layer exports.</text>
<polygon fill="none" stroke="#ced4da" points="21,-872.5 21,-895.5 70,-895.5 70,-872.5 21,-872.5"/>
<text text-anchor="start" x="27" y="-881.8" font-family="DejaVu Sans" font-size="9.00">PK</text>
<polygon fill="none" stroke="#ced4da" points="70,-872.5 70,-895.5 215,-895.5 215,-872.5 70,-872.5"/>
<text text-anchor="start" x="76" y="-881.5" font-family="DejaVu Sans" font-size="10.00">id</text>
<polygon fill="none" stroke="#ced4da" points="21,-849.5 21,-872.5 70,-872.5 70,-849.5 21,-849.5"/>
<text text-anchor="start" x="27" y="-858.8" font-family="DejaVu Sans" font-size="9.00">FK</text>
<polygon fill="none" stroke="#ced4da" points="70,-849.5 70,-872.5 215,-872.5 215,-849.5 70,-849.5"/>
<text text-anchor="start" x="76" y="-858.5" font-family="DejaVu Sans" font-size="10.00">layer_id</text>
<polygon fill="none" stroke="#ced4da" points="21,-826.5 21,-849.5 70,-849.5 70,-826.5 21,-826.5"/>
<text text-anchor="start" x="27" y="-835.8" font-family="DejaVu Sans" font-size="9.00"> </text>
<polygon fill="none" stroke="#ced4da" points="70,-826.5 70,-849.5 215,-849.5 215,-826.5 70,-826.5"/>
<text text-anchor="start" x="76" y="-835.5" font-family="DejaVu Sans" font-size="10.00">version_label</text>
<polygon fill="none" stroke="#ced4da" points="21,-803.5 21,-826.5 70,-826.5 70,-803.5 21,-803.5"/>
<text text-anchor="start" x="27" y="-812.8" font-family="DejaVu Sans" font-size="9.00"> </text>
<polygon fill="none" stroke="#ced4da" points="70,-803.5 70,-826.5 215,-826.5 215,-803.5 70,-803.5"/>
<text text-anchor="start" x="76" y="-812.5" font-family="DejaVu Sans" font-size="10.00">status</text>
<polygon fill="none" stroke="#ced4da" points="21,-780.5 21,-803.5 70,-803.5 70,-780.5 21,-780.5"/>
<text text-anchor="start" x="27" y="-789.8" font-family="DejaVu Sans" font-size="9.00"> </text>
<polygon fill="none" stroke="#ced4da" points="70,-780.5 70,-803.5 215,-803.5 215,-780.5 70,-780.5"/>
<text text-anchor="start" x="76" y="-789.5" font-family="DejaVu Sans" font-size="10.00">nas_path</text>
<polygon fill="none" stroke="#ced4da" points="21,-757.5 21,-780.5 70,-780.5 70,-757.5 21,-757.5"/>
<text text-anchor="start" x="27" y="-766.8" font-family="DejaVu Sans" font-size="9.00"> </text>
<polygon fill="none" stroke="#ced4da" points="70,-757.5 70,-780.5 215,-780.5 215,-757.5 70,-757.5"/>
<text text-anchor="start" x="76" y="-766.5" font-family="DejaVu Sans" font-size="10.00">checksum_sha256</text>
<polygon fill="none" stroke="#ced4da" points="21,-734.5 21,-757.5 70,-757.5 70,-734.5 21,-734.5"/>
<text text-anchor="start" x="27" y="-743.8" font-family="DejaVu Sans" font-size="9.00">FK</text>
<polygon fill="none" stroke="#ced4da" points="70,-734.5 70,-757.5 215,-757.5 215,-734.5 70,-734.5"/>
<text text-anchor="start" x="76" y="-743.5" font-family="DejaVu Sans" font-size="10.00">requested_by_user_id</text>
<polygon fill="none" stroke="#ced4da" points="21,-711.5 21,-734.5 70,-734.5 70,-711.5 21,-711.5"/>
<text text-anchor="start" x="27" y="-720.8" font-family="DejaVu Sans" font-size="9.00"> </text>
<polygon fill="none" stroke="#ced4da" points="70,-711.5 70,-734.5 215,-734.5 215,-711.5 70,-711.5"/>
<text text-anchor="start" x="76" y="-720.5" font-family="DejaVu Sans" font-size="10.00">completed_at</text>
<polygon fill="none" stroke="#ced4da" points="21,-688.5 21,-711.5 70,-711.5 70,-688.5 21,-688.5"/>
<text text-anchor="start" x="27" y="-697.8" font-family="DejaVu Sans" font-size="9.00"> </text>
<polygon fill="none" stroke="#ced4da" points="70,-688.5 70,-711.5 215,-711.5 215,-688.5 70,-688.5"/>
<text text-anchor="start" x="76" y="-697.5" font-family="DejaVu Sans" font-size="10.00">metadata_json</text>
<polygon fill="none" stroke="#ced4da" points="21,-665.5 21,-688.5 70,-688.5 70,-665.5 21,-665.5"/>
<text text-anchor="start" x="27" y="-674.8" font-family="DejaVu Sans" font-size="9.00"> </text>
<polygon fill="none" stroke="#ced4da" points="70,-665.5 70,-688.5 215,-688.5 215,-665.5 70,-665.5"/>
<text text-anchor="start" x="76" y="-674.5" font-family="DejaVu Sans" font-size="10.00">created_at</text>
</g>
<!-- gis_layer_exports&#45;&gt;gis_layers -->
<g id="edge9" class="edge">
<title>gis_layer_exports&#45;&gt;gis_layers</title>
<path fill="none" stroke="#495057" d="M215.1,-833.09C266.48,-847.84 330.73,-866.29 387.77,-882.67"/>
<polygon fill="#495057" stroke="#495057" points="387.28,-884.71 393.62,-884.35 388.44,-880.67 387.28,-884.71"/>
<text text-anchor="middle" x="315" y="-874.5" font-family="DejaVu Sans" font-size="10.00">layer_id</text>
</g>
<!-- gis_layer_exports&#45;&gt;application_users -->
<g id="edge8" class="edge">
<title>gis_layer_exports&#45;&gt;application_users</title>
<path fill="none" stroke="#495057" d="M215.34,-765.07C232.92,-759.17 251.3,-753.94 269,-750.5 346.47,-735.46 626.83,-733.78 668,-746.5 725.61,-764.3 781.83,-799.82 827.09,-834.39"/>
<polygon fill="#495057" stroke="#495057" points="825.96,-836.17 832,-838.16 828.52,-832.84 825.96,-836.17"/>
<text text-anchor="middle" x="531" y="-749.5" font-family="DejaVu Sans" font-size="10.00">requested_by_user_id</text>
</g>
<!-- gis_layer_permissions -->
<g id="node5" class="node">
<title>gis_layer_permissions</title>
<polygon fill="#008000" stroke="transparent" points="18,-606.5 18,-633.5 219,-633.5 219,-606.5 18,-606.5"/>
<polygon fill="none" stroke="#ced4da" points="18,-606.5 18,-633.5 219,-633.5 219,-606.5 18,-606.5"/>
<text text-anchor="start" x="34" y="-617.3" font-family="DejaVu Sans" font-weight="bold" font-size="14.00" fill="#ffffff">gis_layer_permissions</text>
<polygon fill="#f8f9fa" stroke="transparent" points="18,-584.5 18,-606.5 219,-606.5 219,-584.5 18,-584.5"/>
<polygon fill="none" stroke="#ced4da" points="18,-584.5 18,-606.5 219,-606.5 219,-584.5 18,-584.5"/>
<text text-anchor="start" x="24" y="-593.3" font-family="DejaVu Sans" font-size="9.00">Contiene dati relativi a gis layer permessi.</text>
<polygon fill="none" stroke="#ced4da" points="18,-561.5 18,-584.5 89,-584.5 89,-561.5 18,-561.5"/>
<text text-anchor="start" x="24" y="-570.8" font-family="DejaVu Sans" font-size="9.00">PK</text>
<polygon fill="none" stroke="#ced4da" points="89,-561.5 89,-584.5 219,-584.5 219,-561.5 89,-561.5"/>
<text text-anchor="start" x="95" y="-570.5" font-family="DejaVu Sans" font-size="10.00">id</text>
<polygon fill="none" stroke="#ced4da" points="18,-538.5 18,-561.5 89,-561.5 89,-538.5 18,-538.5"/>
<text text-anchor="start" x="24" y="-547.8" font-family="DejaVu Sans" font-size="9.00">FK</text>
<polygon fill="none" stroke="#ced4da" points="89,-538.5 89,-561.5 219,-561.5 219,-538.5 89,-538.5"/>
<text text-anchor="start" x="95" y="-547.5" font-family="DejaVu Sans" font-size="10.00">layer_id</text>
<polygon fill="none" stroke="#ced4da" points="18,-515.5 18,-538.5 89,-538.5 89,-515.5 18,-515.5"/>
<text text-anchor="start" x="24" y="-524.8" font-family="DejaVu Sans" font-size="9.00"> </text>
<polygon fill="none" stroke="#ced4da" points="89,-515.5 89,-538.5 219,-538.5 219,-515.5 89,-515.5"/>
<text text-anchor="start" x="95" y="-524.5" font-family="DejaVu Sans" font-size="10.00">principal_type</text>
<polygon fill="none" stroke="#ced4da" points="18,-492.5 18,-515.5 89,-515.5 89,-492.5 18,-492.5"/>
<text text-anchor="start" x="24" y="-501.8" font-family="DejaVu Sans" font-size="9.00"> </text>
<polygon fill="none" stroke="#ced4da" points="89,-492.5 89,-515.5 219,-515.5 219,-492.5 89,-492.5"/>
<text text-anchor="start" x="95" y="-501.5" font-family="DejaVu Sans" font-size="10.00">principal_key</text>
<polygon fill="none" stroke="#ced4da" points="18,-469.5 18,-492.5 89,-492.5 89,-469.5 18,-469.5"/>
<text text-anchor="start" x="24" y="-478.8" font-family="DejaVu Sans" font-size="9.00">FK</text>
<polygon fill="none" stroke="#ced4da" points="89,-469.5 89,-492.5 219,-492.5 219,-469.5 89,-469.5"/>
<text text-anchor="start" x="95" y="-478.5" font-family="DejaVu Sans" font-size="10.00">user_id</text>
<polygon fill="none" stroke="#ced4da" points="18,-446.5 18,-469.5 89,-469.5 89,-446.5 18,-446.5"/>
<text text-anchor="start" x="24" y="-455.8" font-family="DejaVu Sans" font-size="9.00"> </text>
<polygon fill="none" stroke="#ced4da" points="89,-446.5 89,-469.5 219,-469.5 219,-446.5 89,-446.5"/>
<text text-anchor="start" x="95" y="-455.5" font-family="DejaVu Sans" font-size="10.00">can_view</text>
<polygon fill="none" stroke="#ced4da" points="18,-423.5 18,-446.5 89,-446.5 89,-423.5 18,-423.5"/>
<text text-anchor="start" x="24" y="-432.8" font-family="DejaVu Sans" font-size="9.00"> </text>
<polygon fill="none" stroke="#ced4da" points="89,-423.5 89,-446.5 219,-446.5 219,-423.5 89,-423.5"/>
<text text-anchor="start" x="95" y="-432.5" font-family="DejaVu Sans" font-size="10.00">can_annotate</text>
<polygon fill="none" stroke="#ced4da" points="18,-400.5 18,-423.5 89,-423.5 89,-400.5 18,-400.5"/>
<text text-anchor="start" x="24" y="-409.8" font-family="DejaVu Sans" font-size="9.00"> </text>
<polygon fill="none" stroke="#ced4da" points="89,-400.5 89,-423.5 219,-423.5 219,-400.5 89,-400.5"/>
<text text-anchor="start" x="95" y="-409.5" font-family="DejaVu Sans" font-size="10.00">can_edit</text>
<polygon fill="none" stroke="#ced4da" points="18,-377.5 18,-400.5 89,-400.5 89,-377.5 18,-377.5"/>
<text text-anchor="start" x="24" y="-386.8" font-family="DejaVu Sans" font-size="9.00"> </text>
<polygon fill="none" stroke="#ced4da" points="89,-377.5 89,-400.5 219,-400.5 219,-377.5 89,-377.5"/>
<text text-anchor="start" x="95" y="-386.5" font-family="DejaVu Sans" font-size="10.00">can_approve</text>
<polygon fill="none" stroke="#ced4da" points="18,-354.5 18,-377.5 89,-377.5 89,-354.5 18,-354.5"/>
<text text-anchor="start" x="24" y="-363.8" font-family="DejaVu Sans" font-size="9.00"> </text>
<polygon fill="none" stroke="#ced4da" points="89,-354.5 89,-377.5 219,-377.5 219,-354.5 89,-354.5"/>
<text text-anchor="start" x="95" y="-363.5" font-family="DejaVu Sans" font-size="10.00">can_manage</text>
<polygon fill="none" stroke="#ced4da" points="18,-332.5 18,-354.5 89,-354.5 89,-332.5 18,-332.5"/>
<polygon fill="none" stroke="#ced4da" points="89,-332.5 89,-354.5 219,-354.5 219,-332.5 89,-332.5"/>
<text text-anchor="start" x="95" y="-341.3" font-family="DejaVu Sans" font-size="9.00">+ 3 colonne</text>
</g>
<!-- gis_layer_permissions&#45;&gt;gis_layers -->
<g id="edge12" class="edge">
<title>gis_layer_permissions&#45;&gt;gis_layers</title>
<path fill="none" stroke="#495057" d="M218.58,-625.65C246.17,-665.01 268.76,-697.24 269,-697.5 305.18,-737.58 348.22,-777.44 388.81,-812.27"/>
<polygon fill="#495057" stroke="#495057" points="387.82,-814.19 393.74,-816.5 390.55,-811 387.82,-814.19"/>
<text text-anchor="middle" x="315" y="-786.5" font-family="DejaVu Sans" font-size="10.00">layer_id</text>
</g>
<!-- gis_layer_permissions&#45;&gt;application_users -->
<g id="edge10" class="edge">
<title>gis_layer_permissions&#45;&gt;application_users</title>
<path fill="none" stroke="#495057" d="M218.71,-515.27C383.66,-569.04 704.53,-679.2 799,-751.5 808.91,-759.08 818.41,-767.63 827.46,-776.75"/>
<polygon fill="#495057" stroke="#495057" points="826.17,-778.44 831.86,-781.28 829.18,-775.51 826.17,-778.44"/>
<text text-anchor="middle" x="531" y="-680.5" font-family="DejaVu Sans" font-size="10.00">granted_by_user_id</text>
</g>
<!-- gis_layer_permissions&#45;&gt;application_users -->
<g id="edge11" class="edge">
<title>gis_layer_permissions&#45;&gt;application_users</title>
<path fill="none" stroke="#495057" d="M218.71,-478.29C333.15,-476.4 523.63,-486.03 668,-557.5 754.86,-600.5 818.5,-688.25 860.95,-767.05"/>
<polygon fill="#495057" stroke="#495057" points="859.29,-768.41 863.97,-772.71 863,-766.43 859.29,-768.41"/>
<text text-anchor="middle" x="531" y="-560.5" font-family="DejaVu Sans" font-size="10.00">user_id</text>
</g>
<!-- gis_layers&#45;&gt;application_users -->
<g id="edge13" class="edge">
<title>gis_layers&#45;&gt;application_users</title>
<path fill="none" stroke="#495057" d="M668.21,-923.5C719.88,-923.5 777.75,-923.5 825.65,-923.5"/>
<polygon fill="#495057" stroke="#495057" points="825.74,-925.6 831.74,-923.5 825.74,-921.4 825.74,-925.6"/>
<text text-anchor="middle" x="750" y="-926.5" font-family="DejaVu Sans" font-size="10.00">created_by_user_id</text>
</g>
<!-- gis_layers&#45;&gt;application_users -->
<g id="edge14" class="edge">
<title>gis_layers&#45;&gt;application_users</title>
<path fill="none" stroke="#495057" d="M668.18,-906.2C710.14,-902.91 756.48,-901.36 799,-904.5 807.65,-905.14 816.6,-906.02 825.56,-907.05"/>
<polygon fill="#495057" stroke="#495057" points="825.56,-909.16 831.76,-907.78 826.05,-904.99 825.56,-909.16"/>
<text text-anchor="middle" x="750" y="-907.5" font-family="DejaVu Sans" font-size="10.00">updated_by_user_id</text>
</g>
<!-- gis_shapefile_imports -->
<g id="node7" class="node">
<title>gis_shapefile_imports</title>
<polygon fill="#008000" stroke="transparent" points="0,-273.5 0,-300.5 236,-300.5 236,-273.5 0,-273.5"/>
<polygon fill="none" stroke="#ced4da" points="0,-273.5 0,-300.5 236,-300.5 236,-273.5 0,-273.5"/>
<text text-anchor="start" x="33.5" y="-284.3" font-family="DejaVu Sans" font-weight="bold" font-size="14.00" fill="#ffffff">gis_shapefile_imports</text>
<polygon fill="#f8f9fa" stroke="transparent" points="0,-251.5 0,-273.5 236,-273.5 236,-251.5 0,-251.5"/>
<polygon fill="none" stroke="#ced4da" points="0,-251.5 0,-273.5 236,-273.5 236,-251.5 0,-251.5"/>
<text text-anchor="start" x="6" y="-260.3" font-family="DejaVu Sans" font-size="9.00">Import shapefile e relativo stato di pubblicazione.</text>
<polygon fill="none" stroke="#ced4da" points="0,-228.5 0,-251.5 77,-251.5 77,-228.5 0,-228.5"/>
<text text-anchor="start" x="6" y="-237.8" font-family="DejaVu Sans" font-size="9.00">PK</text>
<polygon fill="none" stroke="#ced4da" points="77,-228.5 77,-251.5 236,-251.5 236,-228.5 77,-228.5"/>
<text text-anchor="start" x="83" y="-237.5" font-family="DejaVu Sans" font-size="10.00">id</text>
<polygon fill="none" stroke="#ced4da" points="0,-205.5 0,-228.5 77,-228.5 77,-205.5 0,-205.5"/>
<text text-anchor="start" x="6" y="-214.8" font-family="DejaVu Sans" font-size="9.00"> </text>
<polygon fill="none" stroke="#ced4da" points="77,-205.5 77,-228.5 236,-228.5 236,-205.5 77,-205.5"/>
<text text-anchor="start" x="83" y="-214.5" font-family="DejaVu Sans" font-size="10.00">status</text>
<polygon fill="none" stroke="#ced4da" points="0,-182.5 0,-205.5 77,-205.5 77,-182.5 0,-182.5"/>
<text text-anchor="start" x="6" y="-191.8" font-family="DejaVu Sans" font-size="9.00"> </text>
<polygon fill="none" stroke="#ced4da" points="77,-182.5 77,-205.5 236,-205.5 236,-182.5 77,-182.5"/>
<text text-anchor="start" x="83" y="-191.5" font-family="DejaVu Sans" font-size="10.00">original_filename</text>
<polygon fill="none" stroke="#ced4da" points="0,-159.5 0,-182.5 77,-182.5 77,-159.5 0,-159.5"/>
<text text-anchor="start" x="6" y="-168.8" font-family="DejaVu Sans" font-size="9.00"> </text>
<polygon fill="none" stroke="#ced4da" points="77,-159.5 77,-182.5 236,-182.5 236,-159.5 77,-159.5"/>
<text text-anchor="start" x="83" y="-168.5" font-family="DejaVu Sans" font-size="10.00">workspace</text>
<polygon fill="none" stroke="#ced4da" points="0,-136.5 0,-159.5 77,-159.5 77,-136.5 0,-136.5"/>
<text text-anchor="start" x="6" y="-145.8" font-family="DejaVu Sans" font-size="9.00"> </text>
<polygon fill="none" stroke="#ced4da" points="77,-136.5 77,-159.5 236,-159.5 236,-136.5 77,-136.5"/>
<text text-anchor="start" x="83" y="-145.5" font-family="DejaVu Sans" font-size="10.00">domain_module</text>
<polygon fill="none" stroke="#ced4da" points="0,-113.5 0,-136.5 77,-136.5 77,-113.5 0,-113.5"/>
<text text-anchor="start" x="6" y="-122.8" font-family="DejaVu Sans" font-size="9.00"> </text>
<polygon fill="none" stroke="#ced4da" points="77,-113.5 77,-136.5 236,-136.5 236,-113.5 77,-113.5"/>
<text text-anchor="start" x="83" y="-122.5" font-family="DejaVu Sans" font-size="10.00">target_layer_name</text>
<polygon fill="none" stroke="#ced4da" points="0,-90.5 0,-113.5 77,-113.5 77,-90.5 0,-90.5"/>
<text text-anchor="start" x="6" y="-99.8" font-family="DejaVu Sans" font-size="9.00"> </text>
<polygon fill="none" stroke="#ced4da" points="77,-90.5 77,-113.5 236,-113.5 236,-90.5 77,-90.5"/>
<text text-anchor="start" x="83" y="-99.5" font-family="DejaVu Sans" font-size="10.00">target_layer_title</text>
<polygon fill="none" stroke="#ced4da" points="0,-67.5 0,-90.5 77,-90.5 77,-67.5 0,-67.5"/>
<text text-anchor="start" x="6" y="-76.8" font-family="DejaVu Sans" font-size="9.00"> </text>
<polygon fill="none" stroke="#ced4da" points="77,-67.5 77,-90.5 236,-90.5 236,-67.5 77,-67.5"/>
<text text-anchor="start" x="83" y="-76.5" font-family="DejaVu Sans" font-size="10.00">official_source</text>
<polygon fill="none" stroke="#ced4da" points="0,-44.5 0,-67.5 77,-67.5 77,-44.5 0,-44.5"/>
<text text-anchor="start" x="6" y="-53.8" font-family="DejaVu Sans" font-size="9.00"> </text>
<polygon fill="none" stroke="#ced4da" points="77,-44.5 77,-67.5 236,-67.5 236,-44.5 77,-44.5"/>
<text text-anchor="start" x="83" y="-53.5" font-family="DejaVu Sans" font-size="10.00">source_srid</text>
<polygon fill="none" stroke="#ced4da" points="0,-21.5 0,-44.5 77,-44.5 77,-21.5 0,-21.5"/>
<text text-anchor="start" x="6" y="-30.8" font-family="DejaVu Sans" font-size="9.00"> </text>
<polygon fill="none" stroke="#ced4da" points="77,-21.5 77,-44.5 236,-44.5 236,-21.5 77,-21.5"/>
<text text-anchor="start" x="83" y="-30.5" font-family="DejaVu Sans" font-size="10.00">encoding</text>
<polygon fill="none" stroke="#ced4da" points="0,0.5 0,-21.5 77,-21.5 77,0.5 0,0.5"/>
<polygon fill="none" stroke="#ced4da" points="77,0.5 77,-21.5 236,-21.5 236,0.5 77,0.5"/>
<text text-anchor="start" x="83" y="-8.3" font-family="DejaVu Sans" font-size="9.00">+ 16 colonne</text>
</g>
<!-- gis_shapefile_imports&#45;&gt;gis_layers -->
<g id="edge16" class="edge">
<title>gis_shapefile_imports&#45;&gt;gis_layers</title>
<path fill="none" stroke="#495057" d="M227.79,-301.46C230.64,-306.48 233.38,-311.5 236,-316.5 283.41,-407.06 344.49,-659.07 394,-748.5 397.53,-754.88 401.28,-761.27 405.21,-767.64"/>
<polygon fill="#495057" stroke="#495057" points="403.58,-769 408.54,-772.98 407.15,-766.78 403.58,-769"/>
<text text-anchor="middle" x="315" y="-671.5" font-family="DejaVu Sans" font-size="10.00">published_layer_id</text>
</g>
<!-- gis_shapefile_imports&#45;&gt;application_users -->
<g id="edge15" class="edge">
<title>gis_shapefile_imports&#45;&gt;application_users</title>
<path fill="none" stroke="#495057" d="M236.01,-190.32C389.48,-248.74 656,-372.58 799,-569.5 841.4,-627.89 871.04,-701.77 891.03,-766.91"/>
<polygon fill="#495057" stroke="#495057" points="889.06,-767.65 892.82,-772.78 893.08,-766.43 889.06,-767.65"/>
<text text-anchor="middle" x="531" y="-434.5" font-family="DejaVu Sans" font-size="10.00">uploaded_by_user_id</text>
</g>
</g>
</svg>
